Istok-Bold.ufo
<glyph name="numbersign" format="2">
  <advance width="1416"/>
  <unicode hex="0023"/>
  <outline>
    <contour>
      <point x="129.0" y="344.0" type="line" smooth="yes"/>
      <point x="69.0" y="344.0"/>
      <point x="77.0" y="394.0" type="qcurve" smooth="yes"/>
      <point x="92.0" y="474.0" type="line" smooth="yes"/>
      <point x="101.0" y="524.0"/>
      <point x="160.0" y="524.0" type="qcurve" smooth="yes"/>
      <point x="341.0" y="524.0" type="line"/>
      <point x="406.0" y="898.0" type="line"/>
      <point x="226.0" y="898.0" type="line" smooth="yes"/>
      <point x="167.0" y="898.0"/>
      <point x="175.0" y="948.0" type="qcurve" smooth="yes"/>
      <point x="189.0" y="1028.0" type="line" smooth="yes"/>
      <point x="198.0" y="1078.0"/>
      <point x="258.0" y="1078.0" type="qcurve" smooth="yes"/>
      <point x="438.0" y="1078.0" type="line"/>
      <point x="488.0" y="1362.0" type="line" smooth="yes"/>
      <point x="499.0" y="1422.0"/>
      <point x="549.0" y="1422.0" type="qcurve" smooth="yes"/>
      <point x="635.0" y="1422.0" type="line" smooth="yes"/>
      <point x="685.0" y="1422.0"/>
      <point x="674.0" y="1362.0" type="qcurve" smooth="yes"/>
      <point x="624.0" y="1078.0" type="line"/>
      <point x="922.0" y="1078.0" type="line"/>
      <point x="972.0" y="1362.0" type="line" smooth="yes"/>
      <point x="983.0" y="1422.0"/>
      <point x="1033.0" y="1422.0" type="qcurve" smooth="yes"/>
      <point x="1119.0" y="1422.0" type="line" smooth="yes"/>
      <point x="1169.0" y="1422.0"/>
      <point x="1158.0" y="1362.0" type="qcurve" smooth="yes"/>
      <point x="1108.0" y="1078.0" type="line"/>
      <point x="1288.0" y="1078.0" type="line" smooth="yes"/>
      <point x="1347.0" y="1078.0"/>
      <point x="1339.0" y="1028.0" type="qcurve" smooth="yes"/>
      <point x="1325.0" y="948.0" type="line" smooth="yes"/>
      <point x="1316.0" y="898.0"/>
      <point x="1256.0" y="898.0" type="qcurve" smooth="yes"/>
      <point x="1076.0" y="898.0" type="line"/>
      <point x="1011.0" y="524.0" type="line"/>
      <point x="1190.0" y="524.0" type="line" smooth="yes"/>
      <point x="1250.0" y="524.0"/>
      <point x="1242.0" y="474.0" type="qcurve" smooth="yes"/>
      <point x="1227.0" y="394.0" type="line" smooth="yes"/>
      <point x="1218.0" y="344.0"/>
      <point x="1159.0" y="344.0" type="qcurve" smooth="yes"/>
      <point x="979.0" y="344.0" type="line"/>
      <point x="929.0" y="60.0" type="line" smooth="yes"/>
      <point x="918.0" y="0.0"/>
      <point x="868.0" y="0.0" type="qcurve" smooth="yes"/>
      <point x="782.0" y="0.0" type="line" smooth="yes"/>
      <point x="732.0" y="0.0"/>
      <point x="743.0" y="60.0" type="qcurve" smooth="yes"/>
      <point x="793.0" y="344.0" type="line"/>
      <point x="495.0" y="344.0" type="line"/>
      <point x="445.0" y="60.0" type="line" smooth="yes"/>
      <point x="434.0" y="0.0"/>
      <point x="384.0" y="0.0" type="qcurve" smooth="yes"/>
      <point x="298.0" y="0.0" type="line" smooth="yes"/>
      <point x="248.0" y="0.0"/>
      <point x="259.0" y="60.0" type="qcurve" smooth="yes"/>
      <point x="309.0" y="344.0" type="line"/>
    </contour>
    <contour>
      <point x="527.0" y="524.0" type="line"/>
      <point x="825.0" y="524.0" type="line"/>
      <point x="890.0" y="898.0" type="line"/>
      <point x="592.0" y="898.0" type="line"/>
    </contour>
  </outline>
</glyph>
<glyph name="quotesingle" format="2">
  <advance width="560"/>
  <unicode hex="0027"/>
  <outline>
    <contour>
      <point x="142.0" y="1404.0" type="line" smooth="yes"/>
      <point x="139.0" y="1469.0"/>
      <point x="193.0" y="1469.0" type="qcurve" smooth="yes"/>
      <point x="367.0" y="1469.0" type="line" smooth="yes"/>
      <point x="421.0" y="1469.0"/>
      <point x="418.0" y="1404.0" type="qcurve" smooth="yes"/>
      <point x="394.0" y="884.0" type="line" smooth="yes"/>
      <point x="391.0" y="824.0"/>
      <point x="344.0" y="824.0" type="qcurve" smooth="yes"/>
      <point x="216.0" y="824.0" type="line" smooth="yes"/>
      <point x="169.0" y="824.0"/>
      <point x="166.0" y="884.0" type="qcurve" smooth="yes"/>
    </contour>
  </outline>
</glyph>
<glyph name="plus" format="2">
  <advance width="1280"/>
  <unicode hex="002B"/>
  <outline>
    <contour>
      <point x="135.0" y="632.0" type="line" smooth="yes"/>
      <point x="75.0" y="632.0"/>
      <point x="75.0" y="682.0" type="qcurve" smooth="yes"/>
      <point x="75.0" y="768.0" type="line" smooth="yes"/>
      <point x="75.0" y="818.0"/>
      <point x="135.0" y="818.0" type="qcurve" smooth="yes"/>
      <point x="547.0" y="818.0" type="line"/>
      <point x="547.0" y="1230.0" type="line" smooth="yes"/>
      <point x="547.0" y="1290.0"/>
      <point x="597.0" y="1290.0" type="qcurve" smooth="yes"/>
      <point x="683.0" y="1290.0" type="line" smooth="yes"/>
      <point x="733.0" y="1290.0"/>
      <point x="733.0" y="1230.0" type="qcurve" smooth="yes"/>
      <point x="733.0" y="818.0" type="line"/>
      <point x="1145.0" y="818.0" type="line" smooth="yes"/>
      <point x="1205.0" y="818.0"/>
      <point x="1205.0" y="768.0" type="qcurve" smooth="yes"/>
      <point x="1205.0" y="682.0" type="line" smooth="yes"/>
      <point x="1205.0" y="632.0"/>
      <point x="1145.0" y="632.0" type="qcurve" smooth="yes"/>
      <point x="733.0" y="632.0" type="line"/>
      <point x="733.0" y="220.0" type="line" smooth="yes"/>
      <point x="733.0" y="160.0"/>
      <point x="683.0" y="160.0" type="qcurve" smooth="yes"/>
      <point x="597.0" y="160.0" type="line" smooth="yes"/>
      <point x="547.0" y="160.0"/>
      <point x="547.0" y="220.0" type="qcurve" smooth="yes"/>
      <point x="547.0" y="632.0" type="line"/>
    </contour>
  </outline>
</glyph>
<glyph name="comma" format="2">
  <advance width="668"/>
  <unicode hex="002C"/>
  <outline>
    <contour>
      <point x="256.0" y="0.0" type="line" smooth="yes"/>
      <point x="186.0" y="0.0"/>
      <point x="186.0" y="75.0" type="qcurve" smooth="yes"/>
      <point x="186.0" y="209.0" type="line" smooth="yes"/>
      <point x="186.0" y="284.0"/>
      <point x="256.0" y="284.0" type="qcurve" smooth="yes"/>
      <point x="412.0" y="284.0" type="line" smooth="yes"/>
      <point x="482.0" y="284.0"/>
      <point x="482.0" y="209.0" type="qcurve" smooth="yes"/>
      <point x="482.0" y="75.0" type="line" smooth="yes"/>
      <point x="482.0" y="-54.0"/>
      <point x="448.0" y="-229.0"/>
      <point x="378.0" y="-283.0" type="qcurve" smooth="yes"/>
      <point x="327.0" y="-322.0"/>
      <point x="298.0" y="-291.0" type="qcurve" smooth="yes"/>
      <point x="260.0" y="-250.0" type="line" smooth="yes"/>
      <point x="224.0" y="-212.0"/>
      <point x="271.0" y="-175.0" type="qcurve" smooth="yes"/>
      <point x="303.0" y="-150.0"/>
      <point x="325.0" y="-70.0"/>
      <point x="325.0" y="0.0" type="qcurve"/>
    </contour>
  </outline>
</glyph>
<glyph name="two" format="2">
  <advance width="1200"/>
  <unicode hex="0032"/>
  <outline>
    <contour>
      <point x="163.0" y="0.0" type="line" smooth="yes"/>
      <point x="88.0" y="0.0"/>
      <point x="88.0" y="65.0" type="qcurve" smooth="yes"/>
      <point x="88.0" y="113.0" type="line" smooth="yes"/>
      <point x="88.0" y="165.0"/>
      <point x="136.0" y="216.0" type="qcurve" smooth="yes"/>
      <point x="435.0" y="531.0" type="line" smooth="yes"/>
      <point x="570.0" y="674.0"/>
      <point x="794.0" y="897.0"/>
      <point x="794.0" y="1011.0" type="qcurve" smooth="yes"/>
      <point x="794.0" y="1125.0"/>
      <point x="681.0" y="1232.0"/>
      <point x="594.0" y="1232.0" type="qcurve" smooth="yes"/>
      <point x="456.0" y="1232.0"/>
      <point x="348.0" y="1104.0"/>
      <point x="324.0" y="1031.0" type="qcurve" smooth="yes"/>
      <point x="301.0" y="960.0"/>
      <point x="240.0" y="980.0" type="qcurve" smooth="yes"/>
      <point x="139.0" y="1014.0" type="line" smooth="yes"/>
      <point x="90.0" y="1031.0"/>
      <point x="111.0" y="1108.0" type="qcurve" smooth="yes"/>
      <point x="150.0" y="1251.0"/>
      <point x="390.0" y="1456.0"/>
      <point x="626.0" y="1456.0" type="qcurve" smooth="yes"/>
      <point x="872.0" y="1456.0"/>
      <point x="1094.0" y="1203.0"/>
      <point x="1094.0" y="1055.0" type="qcurve" smooth="yes"/>
      <point x="1094.0" y="861.0"/>
      <point x="770.0" y="568.0"/>
      <point x="638.0" y="429.0" type="qcurve" smooth="yes"/>
      <point x="468.0" y="250.0" type="line"/>
      <point x="468.0" y="244.0" type="line"/>
      <point x="528.0" y="248.0"/>
      <point x="568.0" y="248.0" type="qcurve" smooth="yes"/>
      <point x="1035.0" y="248.0" type="line" smooth="yes"/>
      <point x="1110.0" y="248.0"/>
      <point x="1110.0" y="183.0" type="qcurve" smooth="yes"/>
      <point x="1110.0" y="65.0" type="line" smooth="yes"/>
      <point x="1110.0" y="0.0"/>
      <point x="1035.0" y="0.0" type="qcurve" smooth="yes"/>
    </contour>
  </outline>
</glyph>
<glyph name="five" format="2">
  <advance width="1200"/>
  <unicode hex="0035"/>
  <outline>
    <contour>
      <point x="101.0" y="101.0" type="qcurve" smooth="yes"/>
      <point x="68.0" y="145.0"/>
      <point x="92.0" y="177.0" type="qcurve" smooth="yes"/>
      <point x="162.0" y="273.0" type="line" smooth="yes"/>
      <point x="204.0" y="331.0"/>
      <point x="264.0" y="276.0" type="qcurve" smooth="yes"/>
      <point x="300.0" y="243.0"/>
      <point x="450.0" y="190.0"/>
      <point x="525.0" y="190.0" type="qcurve" smooth="yes"/>
      <point x="639.0" y="190.0"/>
      <point x="796.0" y="318.0"/>
      <point x="796.0" y="441.0" type="qcurve" smooth="yes"/>
      <point x="796.0" y="558.0"/>
      <point x="696.0" y="702.0"/>
      <point x="625.0" y="702.0" type="qcurve" smooth="yes"/>
      <point x="564.0" y="702.0"/>
      <point x="462.0" y="683.0"/>
      <point x="407.0" y="635.0" type="qcurve" smooth="yes"/>
      <point x="369.0" y="602.0"/>
      <point x="315.0" y="602.0" type="qcurve" smooth="yes"/>
      <point x="206.0" y="602.0" type="line" smooth="yes"/>
      <point x="141.0" y="602.0"/>
      <point x="141.0" y="667.0" type="qcurve" smooth="yes"/>
      <point x="141.0" y="1357.0" type="line" smooth="yes"/>
      <point x="141.0" y="1422.0"/>
      <point x="206.0" y="1422.0" type="qcurve" smooth="yes"/>
      <point x="926.0" y="1422.0" type="line" smooth="yes"/>
      <point x="991.0" y="1422.0"/>
      <point x="991.0" y="1357.0" type="qcurve" smooth="yes"/>
      <point x="991.0" y="1239.0" type="line" smooth="yes"/>
      <point x="991.0" y="1174.0"/>
      <point x="926.0" y="1174.0" type="qcurve" smooth="yes"/>
      <point x="421.0" y="1174.0" type="line"/>
      <point x="421.0" y="929.0" type="line" smooth="yes"/>
      <point x="421.0" y="889.0"/>
      <point x="417.0" y="849.0" type="qcurve"/>
      <point x="423.0" y="849.0" type="line"/>
      <point x="476.0" y="895.0"/>
      <point x="606.0" y="926.0"/>
      <point x="680.0" y="926.0" type="qcurve" smooth="yes"/>
      <point x="855.0" y="926.0"/>
      <point x="1096.0" y="687.0"/>
      <point x="1096.0" y="437.0" type="qcurve" smooth="yes"/>
      <point x="1096.0" y="207.0"/>
      <point x="789.0" y="-34.0"/>
      <point x="578.0" y="-34.0" type="qcurve" smooth="yes"/>
      <point x="402.0" y="-34.0"/>
      <point x="145.0" y="43.0"/>
    </contour>
  </outline>
</glyph>
<glyph name="B" format="2">
  <advance width="1379"/>
  <unicode hex="0042"/>
  <outline>
    <contour>
      <point x="240.0" y="0.0" type="line" smooth="yes"/>
      <point x="160.0" y="0.0"/>
      <point x="160.0" y="75.0" type="qcurve" smooth="yes"/>
      <point x="160.0" y="1359.0" type="line" smooth="yes"/>
      <point x="160.0" y="1434.0"/>
      <point x="240.0" y="1434.0" type="qcurve" smooth="yes"/>
      <point x="580.0" y="1434.0" type="line" smooth="yes"/>
      <point x="964.0" y="1434.0"/>
      <point x="1233.0" y="1245.0"/>
      <point x="1233.0" y="1049.0" type="qcurve" smooth="yes"/>
      <point x="1233.0" y="912.0"/>
      <point x="1032.0" y="762.0"/>
      <point x="938.0" y="750.0" type="qcurve"/>
      <point x="938.0" y="747.0" type="line"/>
      <point x="1029.0" y="741.0"/>
      <point x="1275.0" y="569.0"/>
      <point x="1275.0" y="412.0" type="qcurve" smooth="yes"/>
      <point x="1275.0" y="228.0"/>
      <point x="975.0" y="0.0"/>
      <point x="630.0" y="0.0" type="qcurve" smooth="yes"/>
    </contour>
    <contour>
      <point x="452.0" y="244.0" type="line"/>
      <point x="598.0" y="244.0" type="line" smooth="yes"/>
      <point x="810.0" y="244.0"/>
      <point x="963.0" y="318.0"/>
      <point x="963.0" y="431.0" type="qcurve" smooth="yes"/>
      <point x="963.0" y="537.0"/>
      <point x="786.0" y="618.0"/>
      <point x="598.0" y="618.0" type="qcurve" smooth="yes"/>
      <point x="452.0" y="618.0" type="line"/>
    </contour>
    <contour>
      <point x="452.0" y="854.0" type="line"/>
      <point x="583.0" y="854.0" type="line" smooth="yes"/>
      <point x="712.0" y="854.0"/>
      <point x="937.0" y="944.0"/>
      <point x="937.0" y="1039.0" type="qcurve" smooth="yes"/>
      <point x="937.0" y="1113.0"/>
      <point x="812.0" y="1190.0"/>
      <point x="583.0" y="1190.0" type="qcurve" smooth="yes"/>
      <point x="452.0" y="1190.0" type="line"/>
    </contour>
  </outline>
</glyph>
<glyph name="E" format="2">
  <advance width="1280"/>
  <unicode hex="0045"/>
  <outline>
    <contour>
      <point x="230.0" y="0.0" type="line" smooth="yes"/>
      <point x="160.0" y="0.0"/>
      <point x="160.0" y="75.0" type="qcurve" smooth="yes"/>
      <point x="160.0" y="1359.0" type="line" smooth="yes"/>
      <point x="160.0" y="1434.0"/>
      <point x="230.0" y="1434.0" type="qcurve" smooth="yes"/>
      <point x="1088.0" y="1434.0" type="line" smooth="yes"/>
      <point x="1163.0" y="1434.0"/>
      <point x="1163.0" y="1369.0" type="qcurve" smooth="yes"/>
      <point x="1163.0" y="1251.0" type="line" smooth="yes"/>
      <point x="1163.0" y="1186.0"/>
      <point x="1088.0" y="1186.0" type="qcurve" smooth="yes"/>
      <point x="452.0" y="1186.0" type="line"/>
      <point x="452.0" y="868.0" type="line"/>
      <point x="1035.0" y="868.0" type="line" smooth="yes"/>
      <point x="1110.0" y="868.0"/>
      <point x="1110.0" y="803.0" type="qcurve" smooth="yes"/>
      <point x="1110.0" y="685.0" type="line" smooth="yes"/>
      <point x="1110.0" y="620.0"/>
      <point x="1035.0" y="620.0" type="qcurve" smooth="yes"/>
      <point x="452.0" y="620.0" type="line"/>
      <point x="452.0" y="248.0" type="line"/>
      <point x="1120.0" y="248.0" type="line" smooth="yes"/>
      <point x="1195.0" y="248.0"/>
      <point x="1195.0" y="183.0" type="qcurve" smooth="yes"/>
      <point x="1195.0" y="65.0" type="line" smooth="yes"/>
      <point x="1195.0" y="0.0"/>
      <point x="1120.0" y="0.0" type="qcurve" smooth="yes"/>
    </contour>
  </outline>
</glyph>
<glyph name="F" format="2">
  <advance width="1176"/>
  <unicode hex="0046"/>
  <outline>
    <contour>
      <point x="230.0" y="0.0" type="line" smooth="yes"/>
      <point x="160.0" y="0.0"/>
      <point x="160.0" y="75.0" type="qcurve" smooth="yes"/>
      <point x="160.0" y="1359.0" type="line" smooth="yes"/>
      <point x="160.0" y="1434.0"/>
      <point x="230.0" y="1434.0" type="qcurve" smooth="yes"/>
      <point x="1021.0" y="1434.0" type="line" smooth="yes"/>
      <point x="1096.0" y="1434.0"/>
      <point x="1096.0" y="1369.0" type="qcurve" smooth="yes"/>
      <point x="1096.0" y="1251.0" type="line" smooth="yes"/>
      <point x="1096.0" y="1186.0"/>
      <point x="1021.0" y="1186.0" type="qcurve" smooth="yes"/>
      <point x="452.0" y="1186.0" type="line"/>
      <point x="452.0" y="838.0" type="line"/>
      <point x="939.0" y="838.0" type="line" smooth="yes"/>
      <point x="1014.0" y="838.0"/>
      <point x="1014.0" y="773.0" type="qcurve" smooth="yes"/>
      <point x="1014.0" y="655.0" type="line" smooth="yes"/>
      <point x="1014.0" y="590.0"/>
      <point x="939.0" y="590.0" type="qcurve" smooth="yes"/>
      <point x="452.0" y="590.0" type="line"/>
      <point x="452.0" y="75.0" type="line" smooth="yes"/>
      <point x="452.0" y="0.0"/>
      <point x="382.0" y="0.0" type="qcurve" smooth="yes"/>
    </contour>
  </outline>
</glyph>
<glyph name="G" format="2">
  <advance width="1506"/>
  <unicode hex="0047"/>
  <outline>
    <contour>
      <point x="86.0" y="717.0" type="qcurve" smooth="yes"/>
      <point x="86.0" y="1062.0"/>
      <point x="446.0" y="1468.0"/>
      <point x="776.0" y="1468.0" type="qcurve" smooth="yes"/>
      <point x="975.0" y="1468.0"/>
      <point x="1202.0" y="1366.0"/>
      <point x="1288.0" y="1259.0" type="qcurve" smooth="yes"/>
      <point x="1340.0" y="1194.0"/>
      <point x="1285.0" y="1158.0" type="qcurve" smooth="yes"/>
      <point x="1171.0" y="1084.0" type="line" smooth="yes"/>
      <point x="1121.0" y="1051.0"/>
      <point x="1064.0" y="1113.0" type="qcurve" smooth="yes"/>
      <point x="1017.0" y="1164.0"/>
      <point x="873.0" y="1232.0"/>
      <point x="786.0" y="1232.0" type="qcurve" smooth="yes"/>
      <point x="576.0" y="1232.0"/>
      <point x="398.0" y="967.0"/>
      <point x="398.0" y="717.0" type="qcurve" smooth="yes"/>
      <point x="398.0" y="467.0"/>
      <point x="576.0" y="202.0"/>
      <point x="786.0" y="202.0" type="qcurve" smooth="yes"/>
      <point x="888.0" y="202.0"/>
      <point x="1036.0" y="243.0"/>
      <point x="1102.0" y="297.0" type="qcurve"/>
      <point x="1102.0" y="476.0" type="line"/>
      <point x="885.0" y="476.0" type="line" smooth="yes"/>
      <point x="810.0" y="476.0"/>
      <point x="810.0" y="541.0" type="qcurve" smooth="yes"/>
      <point x="810.0" y="659.0" type="line" smooth="yes"/>
      <point x="810.0" y="724.0"/>
      <point x="885.0" y="724.0" type="qcurve" smooth="yes"/>
      <point x="1319.0" y="724.0" type="line" smooth="yes"/>
      <point x="1394.0" y="724.0"/>
      <point x="1394.0" y="659.0" type="qcurve" smooth="yes"/>
      <point x="1394.0" y="151.0" type="line"/>
      <point x="1254.0" y="48.0"/>
      <point x="969.0" y="-34.0"/>
      <point x="776.0" y="-34.0" type="qcurve" smooth="yes"/>
      <point x="451.0" y="-34.0"/>
      <point x="86.0" y="372.0"/>
    </contour>
  </outline>
</glyph>
<glyph name="H" format="2">
  <advance width="1442"/>
  <unicode hex="0048"/>
  <outline>
    <contour>
      <point x="230.0" y="0.0" type="line" smooth="yes"/>
      <point x="160.0" y="0.0"/>
      <point x="160.0" y="75.0" type="qcurve" smooth="yes"/>
      <point x="160.0" y="1359.0" type="line" smooth="yes"/>
      <point x="160.0" y="1434.0"/>
      <point x="230.0" y="1434.0" type="qcurve" smooth="yes"/>
      <point x="382.0" y="1434.0" type="line" smooth="yes"/>
      <point x="452.0" y="1434.0"/>
      <point x="452.0" y="1359.0" type="qcurve" smooth="yes"/>
      <point x="452.0" y="870.0" type="line"/>
      <point x="990.0" y="870.0" type="line"/>
      <point x="990.0" y="1359.0" type="line" smooth="yes"/>
      <point x="990.0" y="1434.0"/>
      <point x="1060.0" y="1434.0" type="qcurve" smooth="yes"/>
      <point x="1212.0" y="1434.0" type="line" smooth="yes"/>
      <point x="1282.0" y="1434.0"/>
      <point x="1282.0" y="1359.0" type="qcurve" smooth="yes"/>
      <point x="1282.0" y="75.0" type="line" smooth="yes"/>
      <point x="1282.0" y="0.0"/>
      <point x="1212.0" y="0.0" type="qcurve" smooth="yes"/>
      <point x="1060.0" y="0.0" type="line" smooth="yes"/>
      <point x="990.0" y="0.0"/>
      <point x="990.0" y="75.0" type="qcurve" smooth="yes"/>
      <point x="990.0" y="622.0" type="line"/>
      <point x="452.0" y="622.0" type="line"/>
      <point x="452.0" y="75.0" type="line" smooth="yes"/>
      <point x="452.0" y="0.0"/>
      <point x="382.0" y="0.0" type="qcurve" smooth="yes"/>
    </contour>
  </outline>
</glyph>
<glyph name="J" format="2">
  <advance width="947"/>
  <unicode hex="004A"/>
  <outline>
    <contour>
      <point x="77.0" y="19.0" type="qcurve" smooth="yes"/>
      <point x="24.0" y="50.0"/>
      <point x="37.0" y="94.0" type="qcurve" smooth="yes"/>
      <point x="79.0" y="231.0" type="line" smooth="yes"/>
      <point x="97.0" y="290.0"/>
      <point x="173.0" y="243.0" type="qcurve" smooth="yes"/>
      <point x="238.0" y="202.0"/>
      <point x="318.0" y="202.0" type="qcurve" smooth="yes"/>
      <point x="428.0" y="202.0"/>
      <point x="495.0" y="354.0"/>
      <point x="495.0" y="531.0" type="qcurve" smooth="yes"/>
      <point x="495.0" y="1359.0" type="line" smooth="yes"/>
      <point x="495.0" y="1434.0"/>
      <point x="565.0" y="1434.0" type="qcurve" smooth="yes"/>
      <point x="717.0" y="1434.0" type="line" smooth="yes"/>
      <point x="787.0" y="1434.0"/>
      <point x="787.0" y="1359.0" type="qcurve" smooth="yes"/>
      <point x="787.0" y="551.0" type="line" smooth="yes"/>
      <point x="787.0" y="183.0"/>
      <point x="540.0" y="-34.0"/>
      <point x="321.0" y="-34.0" type="qcurve" smooth="yes"/>
      <point x="168.0" y="-34.0"/>
    </contour>
  </outline>
</glyph>
<glyph name="L" format="2">
  <advance width="1162"/>
  <unicode hex="004C"/>
  <outline>
    <contour>
      <point x="230.0" y="0.0" type="line" smooth="yes"/>
      <point x="160.0" y="0.0"/>
      <point x="160.0" y="75.0" type="qcurve" smooth="yes"/>
      <point x="160.0" y="1359.0" type="line" smooth="yes"/>
      <point x="160.0" y="1434.0"/>
      <point x="230.0" y="1434.0" type="qcurve" smooth="yes"/>
      <point x="392.0" y="1434.0" type="line" smooth="yes"/>
      <point x="452.0" y="1434.0"/>
      <point x="452.0" y="1359.0" type="qcurve" smooth="yes"/>
      <point x="452.0" y="248.0" type="line"/>
      <point x="1035.0" y="248.0" type="line" smooth="yes"/>
      <point x="1110.0" y="248.0"/>
      <point x="1110.0" y="183.0" type="qcurve" smooth="yes"/>
      <point x="1110.0" y="65.0" type="line" smooth="yes"/>
      <point x="1110.0" y="0.0"/>
      <point x="1035.0" y="0.0" type="qcurve" smooth="yes"/>
    </contour>
  </outline>
</glyph>
<glyph name="R" format="2">
  <advance width="1428"/>
  <unicode hex="0052"/>
  <outline>
    <contour>
      <point x="230.0" y="0.0" type="line" smooth="yes"/>
      <point x="160.0" y="0.0"/>
      <point x="160.0" y="75.0" type="qcurve" smooth="yes"/>
      <point x="160.0" y="1359.0" type="line" smooth="yes"/>
      <point x="160.0" y="1434.0"/>
      <point x="230.0" y="1434.0" type="qcurve" smooth="yes"/>
      <point x="693.0" y="1434.0" type="line" smooth="yes"/>
      <point x="1002.0" y="1434.0"/>
      <point x="1286.0" y="1243.0"/>
      <point x="1286.0" y="1028.0" type="qcurve" smooth="yes"/>
      <point x="1286.0" y="868.0"/>
      <point x="1056.0" y="678.0"/>
      <point x="879.0" y="647.0" type="qcurve"/>
      <point x="879.0" y="645.0" type="line"/>
      <point x="975.0" y="609.0"/>
      <point x="1073.0" y="481.0"/>
      <point x="1104.0" y="433.0" type="qcurve" smooth="yes"/>
      <point x="1324.0" y="86.0" type="line" smooth="yes"/>
      <point x="1379.0" y="0.0"/>
      <point x="1286.0" y="0.0" type="qcurve" smooth="yes"/>
      <point x="1112.0" y="0.0" type="line" smooth="yes"/>
      <point x="1057.0" y="-0.0"/>
      <point x="1022.0" y="59.0" type="qcurve" smooth="yes"/>
      <point x="820.0" y="396.0" type="line" smooth="yes"/>
      <point x="787.0" y="450.0"/>
      <point x="612.0" y="579.0"/>
      <point x="526.0" y="579.0" type="qcurve" smooth="yes"/>
      <point x="452.0" y="579.0" type="line"/>
      <point x="452.0" y="75.0" type="line" smooth="yes"/>
      <point x="452.0" y="0.0"/>
      <point x="382.0" y="0.0" type="qcurve" smooth="yes"/>
    </contour>
    <contour>
      <point x="452.0" y="827.0" type="line"/>
      <point x="631.0" y="827.0" type="line" smooth="yes"/>
      <point x="831.0" y="827.0"/>
      <point x="1000.0" y="918.0"/>
      <point x="1000.0" y="1017.0" type="qcurve" smooth="yes"/>
      <point x="1000.0" y="1125.0"/>
      <point x="837.0" y="1190.0"/>
      <point x="679.0" y="1190.0" type="qcurve" smooth="yes"/>
      <point x="452.0" y="1190.0" type="line"/>
    </contour>
  </outline>
</glyph>
<glyph name="V" format="2">
  <advance width="1370"/>
  <unicode hex="0056"/>
  <outline>
    <contour>
      <point x="43.0" y="1368.0" type="line" smooth="yes"/>
      <point x="18.0" y="1434.0"/>
      <point x="90.0" y="1434.0" type="qcurve" smooth="yes"/>
      <point x="249.0" y="1434.0" type="line" smooth="yes"/>
      <point x="316.0" y="1434.0"/>
      <point x="341.0" y="1365.0" type="qcurve" smooth="yes"/>
      <point x="647.0" y="530.0" type="line" smooth="yes"/>
      <point x="670.0" y="466.0"/>
      <point x="678.0" y="423.0"/>
      <point x="683.0" y="373.0" type="qcurve"/>
      <point x="687.0" y="373.0" type="line"/>
      <point x="692.0" y="423.0"/>
      <point x="700.0" y="466.0"/>
      <point x="723.0" y="530.0" type="qcurve" smooth="yes"/>
      <point x="1029.0" y="1365.0" type="line" smooth="yes"/>
      <point x="1054.0" y="1434.0"/>
      <point x="1121.0" y="1434.0" type="qcurve" smooth="yes"/>
      <point x="1280.0" y="1434.0" type="line" smooth="yes"/>
      <point x="1352.0" y="1434.0"/>
      <point x="1327.0" y="1368.0" type="qcurve" smooth="yes"/>
      <point x="849.0" y="81.0" type="line" smooth="yes"/>
      <point x="819.0" y="0.0"/>
      <point x="755.0" y="0.0" type="qcurve" smooth="yes"/>
      <point x="615.0" y="0.0" type="line" smooth="yes"/>
      <point x="551.0" y="-0.0"/>
      <point x="521.0" y="81.0" type="qcurve" smooth="yes"/>
    </contour>
  </outline>
</glyph>
<glyph name="asciicircum" format="2">
  <advance width="920"/>
  <unicode hex="005E"/>
  <outline>
    <contour>
      <point x="85.0" y="929.0" type="line" smooth="yes"/>
      <point x="45.0" y="958.0"/>
      <point x="80.0" y="1007.0" type="qcurve" smooth="yes"/>
      <point x="370.0" y="1405.0" type="line" smooth="yes"/>
      <point x="396.0" y="1441.0"/>
      <point x="442.0" y="1441.0" type="qcurve" smooth="yes"/>
      <point x="478.0" y="1441.0" type="line" smooth="yes"/>
      <point x="524.0" y="1441.0"/>
      <point x="550.0" y="1405.0" type="qcurve" smooth="yes"/>
      <point x="840.0" y="1007.0" type="line" smooth="yes"/>
      <point x="876.0" y="958.0"/>
      <point x="835.0" y="929.0" type="qcurve" smooth="yes"/>
      <point x="773.0" y="885.0" type="line" smooth="yes"/>
      <point x="732.0" y="856.0"/>
      <point x="698.0" y="904.0" type="qcurve" smooth="yes"/>
      <point x="461.0" y="1233.0" type="line"/>
      <point x="459.0" y="1233.0" type="line"/>
      <point x="222.0" y="904.0" type="line" smooth="yes"/>
      <point x="188.0" y="856.0"/>
      <point x="147.0" y="885.0" type="qcurve" smooth="yes"/>
    </contour>
  </outline>
</glyph>
<glyph name="underscore" format="2">
  <advance width="1200"/>
  <unicode hex="005F"/>
  <outline>
    <contour>
      <point x="35.0" y="-425.0" type="line" smooth="yes"/>
      <point x="-25.0" y="-425.0"/>
      <point x="-25.0" y="-375.0" type="qcurve" smooth="yes"/>
      <point x="-25.0" y="-275.0" type="line" smooth="yes"/>
      <point x="-25.0" y="-225.0"/>
      <point x="35.0" y="-225.0" type="qcurve" smooth="yes"/>
      <point x="1165.0" y="-225.0" type="line" smooth="yes"/>
      <point x="1225.0" y="-225.0"/>
      <point x="1225.0" y="-275.0" type="qcurve" smooth="yes"/>
      <point x="1225.0" y="-375.0" type="line" smooth="yes"/>
      <point x="1225.0" y="-425.0"/>
      <point x="1165.0" y="-425.0" type="qcurve" smooth="yes"/>
    </contour>
  </outline>
</glyph>
<glyph name="c" format="2">
  <advance width="1086"/>
  <unicode hex="0063"/>
  <outline>
    <contour>
      <point x="80.0" y="525.0" type="qcurve" smooth="yes"/>
      <point x="80.0" y="780.0"/>
      <point x="336.0" y="1070.0"/>
      <point x="601.0" y="1070.0" type="qcurve" smooth="yes"/>
      <point x="756.0" y="1070.0"/>
      <point x="928.0" y="988.0"/>
      <point x="980.0" y="909.0" type="qcurve" smooth="yes"/>
      <point x="1011.0" y="862.0"/>
      <point x="970.0" y="835.0" type="qcurve" smooth="yes"/>
      <point x="864.0" y="765.0" type="line" smooth="yes"/>
      <point x="819.0" y="735.0"/>
      <point x="785.0" y="788.0" type="qcurve" smooth="yes"/>
      <point x="768.0" y="814.0"/>
      <point x="672.0" y="874.0"/>
      <point x="601.0" y="874.0" type="qcurve" smooth="yes"/>
      <point x="488.0" y="874.0"/>
      <point x="376.0" y="715.0"/>
      <point x="376.0" y="525.0" type="qcurve" smooth="yes"/>
      <point x="376.0" y="335.0"/>
      <point x="488.0" y="176.0"/>
      <point x="601.0" y="176.0" type="qcurve" smooth="yes"/>
      <point x="682.0" y="176.0"/>
      <point x="782.0" y="244.0"/>
      <point x="826.0" y="298.0" type="qcurve" smooth="yes"/>
      <point x="864.0" y="344.0"/>
      <point x="906.0" y="311.0" type="qcurve" smooth="yes"/>
      <point x="999.0" y="238.0" type="line" smooth="yes"/>
      <point x="1041.0" y="205.0"/>
      <point x="1004.0" y="150.0" type="qcurve" smooth="yes"/>
      <point x="965.0" y="92.0"/>
      <point x="778.0" y="-20.0"/>
      <point x="601.0" y="-20.0" type="qcurve" smooth="yes"/>
      <point x="336.0" y="-20.0"/>
      <point x="80.0" y="270.0"/>
    </contour>
  </outline>
</glyph>
<glyph name="e" format="2">
  <advance width="1174"/>
  <unicode hex="0065"/>
  <outline>
    <contour>
      <point x="80.0" y="525.0" type="qcurve" smooth="yes"/>
      <point x="80.0" y="778.0"/>
      <point x="333.0" y="1070.0"/>
      <point x="564.0" y="1070.0" type="qcurve" smooth="yes"/>
      <point x="832.0" y="1070.0"/>
      <point x="1092.0" y="794.0"/>
      <point x="1092.0" y="488.0" type="qcurve" smooth="yes"/>
      <point x="1092.0" y="428.0"/>
      <point x="1036.0" y="428.0" type="qcurve" smooth="yes"/>
      <point x="376.0" y="428.0" type="line"/>
      <point x="392.0" y="262.0"/>
      <point x="524.0" y="176.0"/>
      <point x="611.0" y="176.0" type="qcurve" smooth="yes"/>
      <point x="694.0" y="176.0"/>
      <point x="782.0" y="220.0"/>
      <point x="812.0" y="258.0" type="qcurve" smooth="yes"/>
      <point x="846.0" y="302.0"/>
      <point x="896.0" y="272.0" type="qcurve" smooth="yes"/>
      <point x="996.0" y="211.0" type="line" smooth="yes"/>
      <point x="1055.0" y="175.0"/>
      <point x="1013.0" y="125.0" type="qcurve" smooth="yes"/>
      <point x="952.0" y="52.0"/>
      <point x="788.0" y="-20.0"/>
      <point x="611.0" y="-20.0" type="qcurve" smooth="yes"/>
      <point x="324.0" y="-20.0"/>
      <point x="80.0" y="272.0"/>
    </contour>
    <contour>
      <point x="377.0" y="628.0" type="qcurve"/>
      <point x="812.0" y="628.0" type="line"/>
      <point x="812.0" y="736.0"/>
      <point x="704.0" y="873.0"/>
      <point x="586.0" y="873.0" type="qcurve" smooth="yes"/>
      <point x="492.0" y="873.0"/>
      <point x="382.0" y="742.0"/>
    </contour>
  </outline>
</glyph>
<glyph name="l" format="2">
  <advance width="552"/>
  <unicode hex="006C"/>
  <outline>
    <contour>
      <point x="196.0" y="0.0" type="line" smooth="yes"/>
      <point x="136.0" y="0.0"/>
      <point x="136.0" y="60.0" type="qcurve" smooth="yes"/>
      <point x="136.0" y="1241.0" type="line" smooth="yes"/>
      <point x="136.0" y="1286.0"/>
      <point x="157.0" y="1323.0" type="qcurve" smooth="yes"/>
      <point x="234.0" y="1458.0" type="line" smooth="yes"/>
      <point x="256.0" y="1496.0"/>
      <point x="286.0" y="1496.0" type="qcurve" smooth="yes"/>
      <point x="356.0" y="1496.0" type="line" smooth="yes"/>
      <point x="416.0" y="1496.0"/>
      <point x="416.0" y="1436.0" type="qcurve" smooth="yes"/>
      <point x="416.0" y="60.0" type="line" smooth="yes"/>
      <point x="416.0" y="0.0"/>
      <point x="356.0" y="0.0" type="qcurve" smooth="yes"/>
    </contour>
  </outline>
</glyph>
<glyph name="m" format="2">
  <advance width="1750"/>
  <unicode hex="006D"/>
  <outline>
    <contour>
      <point x="196.0" y="0.0" type="line" smooth="yes"/>
      <point x="136.0" y="0.0"/>
      <point x="136.0" y="60.0" type="qcurve" smooth="yes"/>
      <point x="136.0" y="990.0" type="line" smooth="yes"/>
      <point x="136.0" y="1050.0"/>
      <point x="196.0" y="1050.0" type="qcurve" smooth="yes"/>
      <point x="354.0" y="1050.0" type="line" smooth="yes"/>
      <point x="414.0" y="1050.0"/>
      <point x="414.0" y="990.0" type="qcurve" smooth="yes"/>
      <point x="414.0" y="932.0" type="line"/>
      <point x="418.0" y="932.0" type="line"/>
      <point x="447.0" y="996.0"/>
      <point x="585.0" y="1070.0"/>
      <point x="645.0" y="1070.0" type="qcurve" smooth="yes"/>
      <point x="765.0" y="1070.0"/>
      <point x="898.0" y="958.0"/>
      <point x="923.0" y="889.0" type="qcurve"/>
      <point x="927.0" y="889.0" type="line"/>
      <point x="1014.0" y="1002.0"/>
      <point x="1155.0" y="1070.0"/>
      <point x="1265.0" y="1070.0" type="qcurve" smooth="yes"/>
      <point x="1413.0" y="1070.0"/>
      <point x="1616.0" y="874.0"/>
      <point x="1616.0" y="614.0" type="qcurve" smooth="yes"/>
      <point x="1616.0" y="60.0" type="line" smooth="yes"/>
      <point x="1616.0" y="0.0"/>
      <point x="1556.0" y="0.0" type="qcurve" smooth="yes"/>
      <point x="1396.0" y="0.0" type="line" smooth="yes"/>
      <point x="1336.0" y="0.0"/>
      <point x="1336.0" y="60.0" type="qcurve" smooth="yes"/>
      <point x="1336.0" y="542.0" type="line" smooth="yes"/>
      <point x="1336.0" y="760.0"/>
      <point x="1277.0" y="874.0"/>
      <point x="1202.0" y="874.0" type="qcurve" smooth="yes"/>
      <point x="1132.0" y="874.0"/>
      <point x="1016.0" y="710.0"/>
      <point x="1016.0" y="454.0" type="qcurve" smooth="yes"/>
      <point x="1016.0" y="60.0" type="line" smooth="yes"/>
      <point x="1016.0" y="0.0"/>
      <point x="956.0" y="0.0" type="qcurve" smooth="yes"/>
      <point x="796.0" y="0.0" type="line" smooth="yes"/>
      <point x="736.0" y="0.0"/>
      <point x="736.0" y="60.0" type="qcurve" smooth="yes"/>
      <point x="736.0" y="542.0" type="line" smooth="yes"/>
      <point x="736.0" y="760.0"/>
      <point x="677.0" y="874.0"/>
      <point x="602.0" y="874.0" type="qcurve" smooth="yes"/>
      <point x="532.0" y="874.0"/>
      <point x="416.0" y="711.0"/>
      <point x="416.0" y="454.0" type="qcurve" smooth="yes"/>
      <point x="416.0" y="60.0" type="line" smooth="yes"/>
      <point x="416.0" y="0.0"/>
      <point x="356.0" y="0.0" type="qcurve" smooth="yes"/>
    </contour>
  </outline>
</glyph>
<glyph name="o" format="2">
  <advance width="1206"/>
  <unicode hex="006F"/>
  <outline>
    <contour>
      <point x="80.0" y="525.0" type="qcurve" smooth="yes"/>
      <point x="80.0" y="780.0"/>
      <point x="343.0" y="1070.0"/>
      <point x="603.0" y="1070.0" type="qcurve" smooth="yes"/>
      <point x="863.0" y="1070.0"/>
      <point x="1126.0" y="780.0"/>
      <point x="1126.0" y="525.0" type="qcurve" smooth="yes"/>
      <point x="1126.0" y="270.0"/>
      <point x="863.0" y="-20.0"/>
      <point x="603.0" y="-20.0" type="qcurve" smooth="yes"/>
      <point x="343.0" y="-20.0"/>
      <point x="80.0" y="270.0"/>
    </contour>
    <contour>
      <point x="376.0" y="525.0" type="qcurve" smooth="yes"/>
      <point x="376.0" y="335.0"/>
      <point x="493.0" y="176.0"/>
      <point x="603.0" y="176.0" type="qcurve" smooth="yes"/>
      <point x="713.0" y="176.0"/>
      <point x="830.0" y="335.0"/>
      <point x="830.0" y="525.0" type="qcurve" smooth="yes"/>
      <point x="830.0" y="715.0"/>
      <point x="713.0" y="874.0"/>
      <point x="603.0" y="874.0" type="qcurve" smooth="yes"/>
      <point x="493.0" y="874.0"/>
      <point x="376.0" y="715.0"/>
    </contour>
  </outline>
</glyph>
<glyph name="y" format="2">
  <advance width="990"/>
  <unicode hex="0079"/>
  <outline>
    <contour>
      <point x="44.0" y="972.0" type="line" smooth="yes"/>
      <point x="17.0" y="1050.0"/>
      <point x="77.0" y="1050.0" type="qcurve" smooth="yes"/>
      <point x="256.0" y="1050.0" type="line" smooth="yes"/>
      <point x="302.0" y="1050.0"/>
      <point x="316.0" y="999.0" type="qcurve" smooth="yes"/>
      <point x="467.0" y="440.0" type="line" smooth="yes"/>
      <point x="478.0" y="401.0"/>
      <point x="495.0" y="278.0"/>
      <point x="495.0" y="261.0" type="qcurve"/>
      <point x="501.0" y="261.0" type="line"/>
      <point x="513.0" y="314.0"/>
      <point x="524.0" y="377.0"/>
      <point x="549.0" y="468.0" type="qcurve" smooth="yes"/>
      <point x="692.0" y="999.0" type="line" smooth="yes"/>
      <point x="706.0" y="1050.0"/>
      <point x="752.0" y="1050.0" type="qcurve" smooth="yes"/>
      <point x="931.0" y="1050.0" type="line" smooth="yes"/>
      <point x="990.0" y="1050.0"/>
      <point x="964.0" y="972.0" type="qcurve" smooth="yes"/>
      <point x="627.0" y="-42.0" type="line" smooth="yes"/>
      <point x="568.0" y="-220.0"/>
      <point x="396.0" y="-420.0"/>
      <point x="243.0" y="-420.0" type="qcurve" smooth="yes"/>
      <point x="159.0" y="-420.0"/>
      <point x="93.0" y="-406.0" type="qcurve" smooth="yes"/>
      <point x="55.0" y="-398.0"/>
      <point x="64.0" y="-354.0" type="qcurve" smooth="yes"/>
      <point x="86.0" y="-244.0" type="line" smooth="yes"/>
      <point x="95.0" y="-201.0"/>
      <point x="137.0" y="-214.0" type="qcurve" smooth="yes"/>
      <point x="168.0" y="-224.0"/>
      <point x="195.0" y="-224.0" type="qcurve" smooth="yes"/>
      <point x="276.0" y="-224.0"/>
      <point x="361.0" y="-70.0"/>
      <point x="375.0" y="-15.0" type="qcurve"/>
      <point x="378.0" y="0.0" type="line"/>
    </contour>
  </outline>
</glyph>
<glyph name="braceleft" format="2">
  <advance width="829"/>
  <unicode hex="007B"/>
  <outline>
    <contour>
      <point x="134.0" y="444.0" type="qcurve" smooth="yes"/>
      <point x="85.0" y="444.0"/>
      <point x="85.0" y="503.0" type="qcurve" smooth="yes"/>
      <point x="85.0" y="585.0" type="line" smooth="yes"/>
      <point x="85.0" y="644.0"/>
      <point x="134.0" y="644.0" type="qcurve" smooth="yes"/>
      <point x="187.0" y="644.0"/>
      <point x="305.0" y="747.0"/>
      <point x="305.0" y="931.0" type="qcurve" smooth="yes"/>
      <point x="305.0" y="1216.0" type="line" smooth="yes"/>
      <point x="305.0" y="1383.0"/>
      <point x="459.0" y="1496.0"/>
      <point x="713.0" y="1496.0" type="qcurve" smooth="yes"/>
      <point x="773.0" y="1496.0"/>
      <point x="773.0" y="1446.0" type="qcurve" smooth="yes"/>
      <point x="773.0" y="1346.0" type="line" smooth="yes"/>
      <point x="773.0" y="1296.0"/>
      <point x="713.0" y="1296.0" type="qcurve" smooth="yes"/>
      <point x="616.0" y="1296.0"/>
      <point x="585.0" y="1202.0"/>
      <point x="585.0" y="1139.0" type="qcurve" smooth="yes"/>
      <point x="585.0" y="884.0" type="line" smooth="yes"/>
      <point x="585.0" y="720.0"/>
      <point x="451.0" y="570.0"/>
      <point x="344.0" y="545.0" type="qcurve"/>
      <point x="344.0" y="543.0" type="line"/>
      <point x="451.0" y="518.0"/>
      <point x="585.0" y="368.0"/>
      <point x="585.0" y="204.0" type="qcurve" smooth="yes"/>
      <point x="585.0" y="-51.0" type="line" smooth="yes"/>
      <point x="585.0" y="-114.0"/>
      <point x="616.0" y="-208.0"/>
      <point x="713.0" y="-208.0" type="qcurve" smooth="yes"/>
      <point x="773.0" y="-208.0"/>
      <point x="773.0" y="-258.0" type="qcurve" smooth="yes"/>
      <point x="773.0" y="-358.0" type="line" smooth="yes"/>
      <point x="773.0" y="-408.0"/>
      <point x="713.0" y="-408.0" type="qcurve" smooth="yes"/>
      <point x="459.0" y="-408.0"/>
      <point x="305.0" y="-295.0"/>
      <point x="305.0" y="-128.0" type="qcurve" smooth="yes"/>
      <point x="305.0" y="157.0" type="line" smooth="yes"/>
      <point x="305.0" y="341.0"/>
      <point x="187.0" y="444.0"/>
    </contour>
  </outline>
</glyph>
<glyph name="braceright" format="2">
  <advance width="829"/>
  <unicode hex="007D"/>
  <outline>
    <contour>
      <point x="116.0" y="-408.0" type="qcurve" smooth="yes"/>
      <point x="56.0" y="-408.0"/>
      <point x="56.0" y="-358.0" type="qcurve" smooth="yes"/>
      <point x="56.0" y="-258.0" type="line" smooth="yes"/>
      <point x="56.0" y="-208.0"/>
      <point x="116.0" y="-208.0" type="qcurve" smooth="yes"/>
      <point x="213.0" y="-208.0"/>
      <point x="244.0" y="-114.0"/>
      <point x="244.0" y="-51.0" type="qcurve" smooth="yes"/>
      <point x="244.0" y="204.0" type="line" smooth="yes"/>
      <point x="244.0" y="368.0"/>
      <point x="378.0" y="518.0"/>
      <point x="485.0" y="543.0" type="qcurve"/>
      <point x="485.0" y="545.0" type="line"/>
      <point x="378.0" y="570.0"/>
      <point x="244.0" y="720.0"/>
      <point x="244.0" y="884.0" type="qcurve" smooth="yes"/>
      <point x="244.0" y="1139.0" type="line" smooth="yes"/>
      <point x="244.0" y="1202.0"/>
      <point x="213.0" y="1296.0"/>
      <point x="116.0" y="1296.0" type="qcurve" smooth="yes"/>
      <point x="56.0" y="1296.0"/>
      <point x="56.0" y="1346.0" type="qcurve" smooth="yes"/>
      <point x="56.0" y="1446.0" type="line" smooth="yes"/>
      <point x="56.0" y="1496.0"/>
      <point x="116.0" y="1496.0" type="qcurve" smooth="yes"/>
      <point x="370.0" y="1496.0"/>
      <point x="524.0" y="1383.0"/>
      <point x="524.0" y="1216.0" type="qcurve" smooth="yes"/>
      <point x="524.0" y="931.0" type="line" smooth="yes"/>
      <point x="524.0" y="747.0"/>
      <point x="642.0" y="644.0"/>
      <point x="695.0" y="644.0" type="qcurve" smooth="yes"/>
      <point x="744.0" y="644.0"/>
      <point x="744.0" y="585.0" type="qcurve" smooth="yes"/>
      <point x="744.0" y="503.0" type="line" smooth="yes"/>
      <point x="744.0" y="444.0"/>
      <point x="695.0" y="444.0" type="qcurve" smooth="yes"/>
      <point x="642.0" y="444.0"/>
      <point x="524.0" y="341.0"/>
      <point x="524.0" y="157.0" type="qcurve" smooth="yes"/>
      <point x="524.0" y="-128.0" type="line" smooth="yes"/>
      <point x="524.0" y="-295.0"/>
      <point x="370.0" y="-408.0"/>
    </contour>
  </outline>
</glyph>
<glyph name="section" format="2">
  <advance width="1236"/>
  <unicode hex="00A7"/>
  <outline>
    <contour>
      <point x="104.0" y="601.0" type="qcurve" smooth="yes"/>
      <point x="104.0" y="724.0"/>
      <point x="260.0" y="894.0"/>
      <point x="353.0" y="964.0" type="qcurve"/>
      <point x="282.0" y="1062.0"/>
      <point x="282.0" y="1155.0" type="qcurve" smooth="yes"/>
      <point x="282.0" y="1302.0"/>
      <point x="482.0" y="1468.0"/>
      <point x="644.0" y="1468.0" type="qcurve" smooth="yes"/>
      <point x="748.0" y="1468.0"/>
      <point x="883.0" y="1404.0"/>
      <point x="938.0" y="1349.0" type="qcurve" smooth="yes"/>
      <point x="980.0" y="1307.0"/>
      <point x="950.0" y="1277.0" type="qcurve" smooth="yes"/>
      <point x="867.0" y="1194.0" type="line" smooth="yes"/>
      <point x="842.0" y="1169.0"/>
      <point x="806.0" y="1204.0" type="qcurve" smooth="yes"/>
      <point x="776.0" y="1234.0"/>
      <point x="711.0" y="1272.0"/>
      <point x="659.0" y="1272.0" type="qcurve" smooth="yes"/>
      <point x="623.0" y="1272.0"/>
      <point x="566.0" y="1228.0"/>
      <point x="566.0" y="1175.0" type="qcurve" smooth="yes"/>
      <point x="566.0" y="1066.0"/>
      <point x="1132.0" y="684.0"/>
      <point x="1132.0" y="489.0" type="qcurve" smooth="yes"/>
      <point x="1132.0" y="366.0"/>
      <point x="976.0" y="195.0"/>
      <point x="883.0" y="126.0" type="qcurve"/>
      <point x="954.0" y="28.0"/>
      <point x="954.0" y="-65.0" type="qcurve" smooth="yes"/>
      <point x="954.0" y="-212.0"/>
      <point x="754.0" y="-378.0"/>
      <point x="592.0" y="-378.0" type="qcurve" smooth="yes"/>
      <point x="488.0" y="-378.0"/>
      <point x="353.0" y="-314.0"/>
      <point x="298.0" y="-259.0" type="qcurve" smooth="yes"/>
      <point x="256.0" y="-217.0"/>
      <point x="286.0" y="-187.0" type="qcurve" smooth="yes"/>
      <point x="369.0" y="-104.0" type="line" smooth="yes"/>
      <point x="394.0" y="-79.0"/>
      <point x="430.0" y="-114.0" type="qcurve" smooth="yes"/>
      <point x="460.0" y="-144.0"/>
      <point x="525.0" y="-182.0"/>
      <point x="577.0" y="-182.0" type="qcurve" smooth="yes"/>
      <point x="613.0" y="-182.0"/>
      <point x="670.0" y="-138.0"/>
      <point x="670.0" y="-85.0" type="qcurve" smooth="yes"/>
      <point x="670.0" y="24.0"/>
      <point x="104.0" y="406.0"/>
    </contour>
    <contour>
      <point x="346.0" y="646.0" type="qcurve" smooth="yes"/>
      <point x="346.0" y="558.0"/>
      <point x="713.0" y="298.0"/>
      <point x="763.0" y="254.0" type="qcurve"/>
      <point x="842.0" y="324.0" type="line" smooth="yes"/>
      <point x="890.0" y="367.0"/>
      <point x="890.0" y="444.0" type="qcurve" smooth="yes"/>
      <point x="890.0" y="532.0"/>
      <point x="523.0" y="793.0"/>
      <point x="473.0" y="836.0" type="qcurve"/>
      <point x="394.0" y="766.0" type="line" smooth="yes"/>
      <point x="346.0" y="723.0"/>
    </contour>
  </outline>
</glyph>
<glyph name="dieresis" format="2">
  <advance width="614"/>
  <unicode hex="00A8"/>
  <outline>
    <contour>
      <point x="36.0" y="1206.0" type="line" smooth="yes"/>
      <point x="-24.0" y="1206.0"/>
      <point x="-24.0" y="1266.0" type="qcurve" smooth="yes"/>
      <point x="-24.0" y="1382.0" type="line" smooth="yes"/>
      <point x="-24.0" y="1442.0"/>
      <point x="36.0" y="1442.0" type="qcurve" smooth="yes"/>
      <point x="152.0" y="1442.0" type="line" smooth="yes"/>
      <point x="212.0" y="1442.0"/>
      <point x="212.0" y="1382.0" type="qcurve" smooth="yes"/>
      <point x="212.0" y="1266.0" type="line" smooth="yes"/>
      <point x="212.0" y="1206.0"/>
      <point x="152.0" y="1206.0" type="qcurve" smooth="yes"/>
    </contour>
    <contour>
      <point x="462.0" y="1206.0" type="line" smooth="yes"/>
      <point x="402.0" y="1206.0"/>
      <point x="402.0" y="1266.0" type="qcurve" smooth="yes"/>
      <point x="402.0" y="1382.0" type="line" smooth="yes"/>
      <point x="402.0" y="1442.0"/>
      <point x="462.0" y="1442.0" type="qcurve" smooth="yes"/>
      <point x="578.0" y="1442.0" type="line" smooth="yes"/>
      <point x="638.0" y="1442.0"/>
      <point x="638.0" y="1382.0" type="qcurve" smooth="yes"/>
      <point x="638.0" y="1266.0" type="line" smooth="yes"/>
      <point x="638.0" y="1206.0"/>
      <point x="578.0" y="1206.0" type="qcurve" smooth="yes"/>
    </contour>
  </outline>
</glyph>
<glyph name="degree" format="2">
  <advance width="600"/>
  <unicode hex="00B0"/>
  <outline>
    <contour>
      <point x="76.0" y="1240.0" type="qcurve" smooth="yes"/>
      <point x="76.0" y="1333.0"/>
      <point x="207.0" y="1464.0"/>
      <point x="300.0" y="1464.0" type="qcurve" smooth="yes"/>
      <point x="393.0" y="1464.0"/>
      <point x="524.0" y="1333.0"/>
      <point x="524.0" y="1240.0" type="qcurve" smooth="yes"/>
      <point x="524.0" y="1147.0"/>
      <point x="393.0" y="1016.0"/>
      <point x="300.0" y="1016.0" type="qcurve" smooth="yes"/>
      <point x="207.0" y="1016.0"/>
      <point x="76.0" y="1147.0"/>
    </contour>
    <contour>
      <point x="216.0" y="1240.0" type="qcurve" smooth="yes"/>
      <point x="216.0" y="1204.0"/>
      <point x="264.0" y="1156.0"/>
      <point x="300.0" y="1156.0" type="qcurve" smooth="yes"/>
      <point x="336.0" y="1156.0"/>
      <point x="384.0" y="1204.0"/>
      <point x="384.0" y="1240.0" type="qcurve" smooth="yes"/>
      <point x="384.0" y="1276.0"/>
      <point x="336.0" y="1324.0"/>
      <point x="300.0" y="1324.0" type="qcurve" smooth="yes"/>
      <point x="264.0" y="1324.0"/>
      <point x="216.0" y="1276.0"/>
    </contour>
  </outline>
</glyph>
<glyph name="Eth" format="2">
  <advance width="1500"/>
  <unicode hex="00D0"/>
  <outline>
    <contour>
      <point x="105.0" y="612.0" type="line" smooth="yes"/>
      <point x="30.0" y="612.0"/>
      <point x="30.0" y="677.0" type="qcurve" smooth="yes"/>
      <point x="30.0" y="795.0" type="line" smooth="yes"/>
      <point x="30.0" y="860.0"/>
      <point x="105.0" y="860.0" type="qcurve" smooth="yes"/>
      <point x="210.0" y="860.0" type="line"/>
      <point x="210.0" y="1359.0" type="line" smooth="yes"/>
      <point x="210.0" y="1434.0"/>
      <point x="280.0" y="1434.0" type="qcurve" smooth="yes"/>
      <point x="629.0" y="1434.0" type="line" smooth="yes"/>
      <point x="1089.0" y="1434.0"/>
      <point x="1414.0" y="1062.0"/>
      <point x="1414.0" y="719.0" type="qcurve" smooth="yes"/>
      <point x="1414.0" y="376.0"/>
      <point x="1089.0" y="0.0"/>
      <point x="629.0" y="0.0" type="qcurve" smooth="yes"/>
      <point x="280.0" y="0.0" type="line" smooth="yes"/>
      <point x="210.0" y="0.0"/>
      <point x="210.0" y="75.0" type="qcurve" smooth="yes"/>
      <point x="210.0" y="612.0" type="line"/>
    </contour>
    <contour>
      <point x="502.0" y="248.0" type="line"/>
      <point x="610.0" y="248.0" type="line" smooth="yes"/>
      <point x="920.0" y="248.0"/>
      <point x="1102.0" y="479.0"/>
      <point x="1102.0" y="719.0" type="qcurve" smooth="yes"/>
      <point x="1102.0" y="959.0"/>
      <point x="920.0" y="1188.0"/>
      <point x="610.0" y="1188.0" type="qcurve" smooth="yes"/>
      <point x="502.0" y="1188.0" type="line"/>
      <point x="502.0" y="860.0" type="line"/>
      <point x="741.0" y="860.0" type="line" smooth="yes"/>
      <point x="816.0" y="860.0"/>
      <point x="816.0" y="795.0" type="qcurve" smooth="yes"/>
      <point x="816.0" y="677.0" type="line" smooth="yes"/>
      <point x="816.0" y="612.0"/>
      <point x="741.0" y="612.0" type="qcurve" smooth="yes"/>
      <point x="502.0" y="612.0" type="line"/>
    </contour>
  </outline>
</glyph>
<glyph name="multiply" format="2">
  <advance width="1280"/>
  <unicode hex="00D7"/>
  <outline>
    <contour>
      <point x="208.97500610351562" y="356.09100341796875" type="line" smooth="yes"/>
      <point x="173.61900329589844" y="391.4460144042969"/>
      <point x="216.04600524902344" y="433.87298583984375" type="qcurve" smooth="yes"/>
      <point x="507.3739929199219" y="725.2009887695312" type="line"/>
      <point x="216.04600524902344" y="1016.530029296875" type="line" smooth="yes"/>
      <point x="173.61900329589844" y="1058.9599609375"/>
      <point x="208.97500610351562" y="1094.31005859375" type="qcurve" smooth="yes"/>
      <point x="269.7860107421875" y="1155.1199951171875" type="line" smooth="yes"/>
      <point x="305.1419982910156" y="1190.47998046875"/>
      <point x="347.5669860839844" y="1148.050048828125" type="qcurve" smooth="yes"/>
      <point x="638.89599609375" y="856.7230224609375" type="line"/>
      <point x="930.2239990234375" y="1148.050048828125" type="line" smooth="yes"/>
      <point x="972.6500244140625" y="1190.47998046875"/>
      <point x="1008.010009765625" y="1155.1199951171875" type="qcurve" smooth="yes"/>
      <point x="1068.8199462890625" y="1094.31005859375" type="line" smooth="yes"/>
      <point x="1104.1700439453125" y="1058.9599609375"/>
      <point x="1061.75" y="1016.530029296875" type="qcurve" smooth="yes"/>
      <point x="770.4180297851562" y="725.2009887695312" type="line"/>
      <point x="1061.75" y="433.87298583984375" type="line" smooth="yes"/>
      <point x="1104.1700439453125" y="391.4460144042969"/>
      <point x="1068.8199462890625" y="356.09100341796875" type="qcurve" smooth="yes"/>
      <point x="1008.010009765625" y="295.2799987792969" type="line" smooth="yes"/>
      <point x="972.6500244140625" y="259.92498779296875"/>
      <point x="930.2239990234375" y="302.35198974609375" type="qcurve" smooth="yes"/>
      <point x="638.89599609375" y="593.6790161132812" type="line"/>
      <point x="347.5669860839844" y="302.35198974609375" type="line" smooth="yes"/>
      <point x="305.1419982910156" y="259.92498779296875"/>
      <point x="269.7860107421875" y="295.2799987792969" type="qcurve" smooth="yes"/>
    </contour>
  </outline>
</glyph>
<glyph name="Thorn" format="2">
  <advance width="1312"/>
  <unicode hex="00DE"/>
  <outline>
    <contour>
      <point x="230.0" y="-11.0" type="line" smooth="yes"/>
      <point x="160.0" y="-11.0"/>
      <point x="160.0" y="64.0" type="qcurve" smooth="yes"/>
      <point x="160.0" y="1363.0" type="line" smooth="yes"/>
      <point x="160.0" y="1438.0"/>
      <point x="230.0" y="1438.0" type="qcurve" smooth="yes"/>
      <point x="382.0" y="1438.0" type="line" smooth="yes"/>
      <point x="452.0" y="1438.0"/>
      <point x="452.0" y="1363.0" type="qcurve" smooth="yes"/>
      <point x="452.0" y="1198.0" type="line"/>
      <point x="608.0" y="1198.0" type="line" smooth="yes"/>
      <point x="928.0" y="1198.0"/>
      <point x="1222.0" y="970.0"/>
      <point x="1222.0" y="750.0" type="qcurve" smooth="yes"/>
      <point x="1222.0" y="530.0"/>
      <point x="928.0" y="302.0"/>
      <point x="608.0" y="302.0" type="qcurve" smooth="yes"/>
      <point x="452.0" y="302.0" type="line"/>
      <point x="452.0" y="64.0" type="line" smooth="yes"/>
      <point x="452.0" y="-11.0"/>
      <point x="382.0" y="-11.0" type="qcurve" smooth="yes"/>
    </contour>
    <contour>
      <point x="452.0" y="546.0" type="line"/>
      <point x="615.0" y="546.0" type="line" smooth="yes"/>
      <point x="776.0" y="546.0"/>
      <point x="920.0" y="640.0"/>
      <point x="920.0" y="750.0" type="qcurve" smooth="yes"/>
      <point x="920.0" y="860.0"/>
      <point x="776.0" y="954.0"/>
      <point x="615.0" y="954.0" type="qcurve" smooth="yes"/>
      <point x="452.0" y="954.0" type="line"/>
    </contour>
  </outline>
</glyph>
<glyph name="ae" format="2">
  <advance width="1765"/>
  <unicode hex="00E6"/>
  <outline>
    <contour>
      <point x="80.0" y="280.0" type="qcurve" smooth="yes"/>
      <point x="80.0" y="480.0"/>
      <point x="457.0" y="660.0"/>
      <point x="697.0" y="666.0" type="qcurve"/>
      <point x="697.0" y="706.0" type="line" smooth="yes"/>
      <point x="697.0" y="798.0"/>
      <point x="605.0" y="874.0"/>
      <point x="527.0" y="874.0" type="qcurve" smooth="yes"/>
      <point x="469.0" y="874.0"/>
      <point x="380.0" y="837.0"/>
      <point x="320.0" y="798.0"/>
      <point x="295.0" y="776.0" type="qcurve" smooth="yes"/>
      <point x="249.0" y="736.0"/>
      <point x="219.0" y="772.0" type="qcurve" smooth="yes"/>
      <point x="136.0" y="874.0" type="line" smooth="yes"/>
      <point x="105.0" y="912.0"/>
      <point x="151.0" y="952.0" type="qcurve" smooth="yes"/>
      <point x="189.0" y="986.0"/>
      <point x="289.0" y="1033.0"/>
      <point x="436.0" y="1070.0"/>
      <point x="552.0" y="1070.0" type="qcurve" smooth="yes"/>
      <point x="636.0" y="1070.0"/>
      <point x="797.0" y="1031.0"/>
      <point x="859.0" y="976.0" type="qcurve"/>
      <point x="862.0" y="976.0" type="line"/>
      <point x="912.0" y="1024.0"/>
      <point x="1076.0" y="1070.0"/>
      <point x="1160.0" y="1070.0" type="qcurve" smooth="yes"/>
      <point x="1428.0" y="1070.0"/>
      <point x="1683.0" y="794.0"/>
      <point x="1683.0" y="488.0" type="qcurve" smooth="yes"/>
      <point x="1683.0" y="428.0"/>
      <point x="1627.0" y="428.0" type="qcurve" smooth="yes"/>
      <point x="977.0" y="428.0" type="line"/>
      <point x="988.0" y="280.0"/>
      <point x="1120.0" y="176.0"/>
      <point x="1202.0" y="176.0" type="qcurve" smooth="yes"/>
      <point x="1270.0" y="176.0"/>
      <point x="1378.0" y="218.0"/>
      <point x="1410.0" y="258.0" type="qcurve" smooth="yes"/>
      <point x="1446.0" y="303.0"/>
      <point x="1494.0" y="272.0" type="qcurve" smooth="yes"/>
      <point x="1587.0" y="211.0" type="line" smooth="yes"/>
      <point x="1645.0" y="173.0"/>
      <point x="1604.0" y="125.0" type="qcurve" smooth="yes"/>
      <point x="1543.0" y="52.0"/>
      <point x="1384.0" y="-20.0"/>
      <point x="1207.0" y="-20.0" type="qcurve" smooth="yes"/>
      <point x="1044.0" y="-20.0"/>
      <point x="842.0" y="58.0"/>
      <point x="779.0" y="146.0" type="qcurve"/>
      <point x="777.0" y="146.0" type="line"/>
      <point x="714.0" y="76.0"/>
      <point x="518.0" y="-20.0"/>
      <point x="424.0" y="-20.0" type="qcurve" smooth="yes"/>
      <point x="246.0" y="-20.0"/>
      <point x="80.0" y="141.0"/>
    </contour>
    <contour>
      <point x="376.0" y="286.0" type="qcurve" smooth="yes"/>
      <point x="376.0" y="256.0"/>
      <point x="400.0" y="201.0"/>
      <point x="462.0" y="176.0"/>
      <point x="495.0" y="176.0" type="qcurve" smooth="yes"/>
      <point x="543.0" y="176.0"/>
      <point x="647.0" y="224.0"/>
      <point x="710.0" y="284.0" type="qcurve"/>
      <point x="699.0" y="360.0"/>
      <point x="697.0" y="473.0" type="qcurve"/>
      <point x="543.0" y="453.0"/>
      <point x="429.0" y="398.0"/>
      <point x="376.0" y="333.0"/>
    </contour>
    <contour>
      <point x="977.0" y="628.0" type="qcurve"/>
      <point x="1403.0" y="628.0" type="line"/>
      <point x="1403.0" y="736.0"/>
      <point x="1300.0" y="873.0"/>
      <point x="1182.0" y="873.0" type="qcurve" smooth="yes"/>
      <point x="1088.0" y="873.0"/>
      <point x="982.0" y="742.0"/>
    </contour>
  </outline>
</glyph>
<glyph name="Eng" format="2">
  <advance width="1442"/>
  <unicode hex="014A"/>
  <outline>
    <contour>
      <point x="230.0" y="0.0" type="line" smooth="yes"/>
      <point x="160.0" y="0.0"/>
      <point x="160.0" y="75.0" type="qcurve" smooth="yes"/>
      <point x="160.0" y="1359.0" type="line" smooth="yes"/>
      <point x="160.0" y="1434.0"/>
      <point x="230.0" y="1434.0" type="qcurve" smooth="yes"/>
      <point x="364.0" y="1434.0" type="line" smooth="yes"/>
      <point x="427.0" y="1434.0"/>
      <point x="434.0" y="1359.0" type="qcurve" smooth="yes"/>
      <point x="447.0" y="1223.0" type="line"/>
      <point x="454.0" y="1223.0" type="line"/>
      <point x="521.0" y="1327.0"/>
      <point x="705.0" y="1468.0"/>
      <point x="855.0" y="1468.0" type="qcurve" smooth="yes"/>
      <point x="1073.0" y="1468.0"/>
      <point x="1282.0" y="1216.0"/>
      <point x="1282.0" y="952.0" type="qcurve" smooth="yes"/>
      <point x="1282.0" y="35.0" type="line" smooth="yes"/>
      <point x="1282.0" y="-201.0"/>
      <point x="1092.0" y="-420.0"/>
      <point x="902.0" y="-420.0" type="qcurve" smooth="yes"/>
      <point x="788.0" y="-420.0"/>
      <point x="700.0" y="-389.0" type="qcurve" smooth="yes"/>
      <point x="649.0" y="-371.0"/>
      <point x="662.0" y="-320.0" type="qcurve" smooth="yes"/>
      <point x="694.0" y="-199.0" type="line" smooth="yes"/>
      <point x="710.0" y="-140.0"/>
      <point x="771.0" y="-165.0" type="qcurve" smooth="yes"/>
      <point x="819.0" y="-184.0"/>
      <point x="863.0" y="-184.0" type="qcurve" smooth="yes"/>
      <point x="930.0" y="-184.0"/>
      <point x="990.0" y="-88.0"/>
      <point x="990.0" y="91.0" type="qcurve" smooth="yes"/>
      <point x="990.0" y="864.0" type="line" smooth="yes"/>
      <point x="990.0" y="1052.0"/>
      <point x="888.0" y="1232.0"/>
      <point x="752.0" y="1232.0" type="qcurve" smooth="yes"/>
      <point x="628.0" y="1232.0"/>
      <point x="452.0" y="912.0"/>
      <point x="452.0" y="627.0" type="qcurve" smooth="yes"/>
      <point x="452.0" y="75.0" type="line" smooth="yes"/>
      <point x="452.0" y="0.0"/>
      <point x="382.0" y="0.0" type="qcurve" smooth="yes"/>
    </contour>
  </outline>
</glyph>
<glyph name="uni0191" format="2">
  <advance width="1176"/>
  <unicode hex="0191"/>
  <outline>
    <contour>
      <point x="-130.0" y="-389.0" type="qcurve" smooth="yes"/>
      <point x="-181.0" y="-371.0"/>
      <point x="-168.0" y="-320.0" type="qcurve" smooth="yes"/>
      <point x="-136.0" y="-199.0" type="line" smooth="yes"/>
      <point x="-120.0" y="-140.0"/>
      <point x="-59.0" y="-165.0" type="qcurve" smooth="yes"/>
      <point x="-11.0" y="-184.0"/>
      <point x="33.0" y="-184.0" type="qcurve" smooth="yes"/>
      <point x="100.0" y="-184.0"/>
      <point x="160.0" y="-88.0"/>
      <point x="160.0" y="91.0" type="qcurve" smooth="yes"/>
      <point x="160.0" y="1359.0" type="line" smooth="yes"/>
      <point x="160.0" y="1434.0"/>
      <point x="230.0" y="1434.0" type="qcurve" smooth="yes"/>
      <point x="1021.0" y="1434.0" type="line" smooth="yes"/>
      <point x="1096.0" y="1434.0"/>
      <point x="1096.0" y="1369.0" type="qcurve" smooth="yes"/>
      <point x="1096.0" y="1251.0" type="line" smooth="yes"/>
      <point x="1096.0" y="1186.0"/>
      <point x="1021.0" y="1186.0" type="qcurve" smooth="yes"/>
      <point x="452.0" y="1186.0" type="line"/>
      <point x="452.0" y="838.0" type="line"/>
      <point x="939.0" y="838.0" type="line" smooth="yes"/>
      <point x="1014.0" y="838.0"/>
      <point x="1014.0" y="773.0" type="qcurve" smooth="yes"/>
      <point x="1014.0" y="655.0" type="line" smooth="yes"/>
      <point x="1014.0" y="590.0"/>
      <point x="939.0" y="590.0" type="qcurve" smooth="yes"/>
      <point x="452.0" y="590.0" type="line"/>
      <point x="452.0" y="35.0" type="line" smooth="yes"/>
      <point x="452.0" y="-201.0"/>
      <point x="262.0" y="-420.0"/>
      <point x="72.0" y="-420.0" type="qcurve" smooth="yes"/>
      <point x="-42.0" y="-420.0"/>
    </contour>
  </outline>
</glyph>
<glyph name="uni0196" format="2">
  <advance width="938"/>
  <unicode hex="0196"/>
  <outline>
    <contour>
      <point x="160.0" y="499.0" type="qcurve" smooth="yes"/>
      <point x="160.0" y="1359.0" type="line" smooth="yes"/>
      <point x="160.0" y="1434.0"/>
      <point x="230.0" y="1434.0" type="qcurve" smooth="yes"/>
      <point x="382.0" y="1434.0" type="line" smooth="yes"/>
      <point x="452.0" y="1434.0"/>
      <point x="452.0" y="1359.0" type="qcurve" smooth="yes"/>
      <point x="452.0" y="476.0" type="line" smooth="yes"/>
      <point x="452.0" y="344.0"/>
      <point x="530.0" y="202.0"/>
      <point x="621.0" y="202.0" type="qcurve" smooth="yes"/>
      <point x="652.0" y="202.0"/>
      <point x="734.0" y="220.0"/>
      <point x="761.0" y="234.0" type="qcurve" smooth="yes"/>
      <point x="828.0" y="269.0"/>
      <point x="848.0" y="208.0" type="qcurve" smooth="yes"/>
      <point x="886.0" y="95.0" type="line" smooth="yes"/>
      <point x="904.0" y="41.0"/>
      <point x="854.0" y="16.0" type="qcurve" smooth="yes"/>
      <point x="802.0" y="-10.0"/>
      <point x="666.0" y="-34.0"/>
      <point x="602.0" y="-34.0" type="qcurve" smooth="yes"/>
      <point x="374.0" y="-34.0"/>
      <point x="160.0" y="242.0"/>
    </contour>
  </outline>
</glyph>
<glyph name="uni01B2" format="2">
  <advance width="1377"/>
  <unicode hex="01B2"/>
  <outline>
    <contour>
      <point x="160.0" y="597.0" type="qcurve" smooth="yes"/>
      <point x="160.0" y="1379.0" type="line" smooth="yes"/>
      <point x="160.0" y="1434.0"/>
      <point x="230.0" y="1434.0" type="qcurve" smooth="yes"/>
      <point x="382.0" y="1434.0" type="line" smooth="yes"/>
      <point x="452.0" y="1434.0"/>
      <point x="452.0" y="1379.0" type="qcurve" smooth="yes"/>
      <point x="452.0" y="607.0" type="line" smooth="yes"/>
      <point x="452.0" y="337.0"/>
      <point x="623.0" y="202.0"/>
      <point x="719.0" y="202.0" type="qcurve" smooth="yes"/>
      <point x="863.0" y="202.0"/>
      <point x="979.0" y="435.0"/>
      <point x="979.0" y="699.0" type="qcurve" smooth="yes"/>
      <point x="979.0" y="851.0"/>
      <point x="882.0" y="1114.0"/>
      <point x="786.0" y="1222.0" type="qcurve" smooth="yes"/>
      <point x="729.0" y="1286.0"/>
      <point x="790.0" y="1334.0" type="qcurve" smooth="yes"/>
      <point x="923.0" y="1439.0" type="line" smooth="yes"/>
      <point x="978.0" y="1482.0"/>
      <point x="1043.0" y="1407.0" type="qcurve" smooth="yes"/>
      <point x="1179.0" y="1251.0"/>
      <point x="1291.0" y="919.0"/>
      <point x="1291.0" y="743.0" type="qcurve" smooth="yes"/>
      <point x="1291.0" y="393.0"/>
      <point x="1047.0" y="-34.0"/>
      <point x="717.0" y="-34.0" type="qcurve" smooth="yes"/>
      <point x="443.0" y="-34.0"/>
      <point x="160.0" y="247.0"/>
    </contour>
  </outline>
</glyph>
<glyph name="uni0245" format="2">
  <advance width="1370"/>
  <unicode hex="0245"/>
  <outline>
    <contour>
      <point x="90.0" y="0.0" type="line" smooth="yes"/>
      <point x="18.0" y="0.0"/>
      <point x="43.0" y="66.0" type="qcurve" smooth="yes"/>
      <point x="521.0" y="1353.0" type="line" smooth="yes"/>
      <point x="551.0" y="1434.0"/>
      <point x="615.0" y="1434.0" type="qcurve" smooth="yes"/>
      <point x="755.0" y="1434.0" type="line" smooth="yes"/>
      <point x="819.0" y="1434.0"/>
      <point x="849.0" y="1353.0" type="qcurve" smooth="yes"/>
      <point x="1327.0" y="66.0" type="line" smooth="yes"/>
      <point x="1352.0" y="0.0"/>
      <point x="1280.0" y="0.0" type="qcurve" smooth="yes"/>
      <point x="1121.0" y="0.0" type="line" smooth="yes"/>
      <point x="1054.0" y="0.0"/>
      <point x="1029.0" y="69.0" type="qcurve" smooth="yes"/>
      <point x="723.0" y="904.0" type="line" smooth="yes"/>
      <point x="700.0" y="968.0"/>
      <point x="692.0" y="1011.0"/>
      <point x="687.0" y="1061.0" type="qcurve"/>
      <point x="683.0" y="1061.0" type="line"/>
      <point x="678.0" y="1011.0"/>
      <point x="670.0" y="968.0"/>
      <point x="647.0" y="904.0" type="qcurve" smooth="yes"/>
      <point x="341.0" y="69.0" type="line" smooth="yes"/>
      <point x="316.0" y="0.0"/>
      <point x="249.0" y="0.0" type="qcurve" smooth="yes"/>
    </contour>
  </outline>
</glyph>
<glyph name="uni0292" format="2">
  <advance width="1025"/>
  <unicode hex="0292"/>
  <outline>
    <contour>
      <point x="81.0" y="-292.0" type="qcurve" smooth="yes"/>
      <point x="40.0" y="-245.0"/>
      <point x="81.0" y="-203.0" type="qcurve" smooth="yes"/>
      <point x="156.0" y="-126.0" type="line" smooth="yes"/>
      <point x="197.0" y="-83.0"/>
      <point x="244.0" y="-130.0" type="qcurve" smooth="yes"/>
      <point x="288.0" y="-174.0"/>
      <point x="381.0" y="-224.0"/>
      <point x="467.0" y="-224.0" type="qcurve" smooth="yes"/>
      <point x="558.0" y="-224.0"/>
      <point x="634.0" y="-87.0"/>
      <point x="634.0" y="10.0" type="qcurve" smooth="yes"/>
      <point x="634.0" y="120.0"/>
      <point x="522.0" y="253.0"/>
      <point x="374.0" y="253.0" type="qcurve" smooth="yes"/>
      <point x="281.0" y="253.0" type="line" smooth="yes"/>
      <point x="221.0" y="253.0"/>
      <point x="221.0" y="303.0" type="qcurve" smooth="yes"/>
      <point x="221.0" y="379.0" type="line" smooth="yes"/>
      <point x="221.0" y="434.0"/>
      <point x="262.0" y="487.0" type="qcurve" smooth="yes"/>
      <point x="541.0" y="850.0" type="line"/>
      <point x="541.0" y="854.0" type="line"/>
      <point x="501.0" y="850.0"/>
      <point x="461.0" y="850.0" type="qcurve" smooth="yes"/>
      <point x="140.0" y="850.0" type="line" smooth="yes"/>
      <point x="80.0" y="850.0"/>
      <point x="80.0" y="900.0" type="qcurve" smooth="yes"/>
      <point x="80.0" y="1000.0" type="line" smooth="yes"/>
      <point x="80.0" y="1050.0"/>
      <point x="140.0" y="1050.0" type="qcurve" smooth="yes"/>
      <point x="828.0" y="1050.0" type="line" smooth="yes"/>
      <point x="888.0" y="1050.0"/>
      <point x="888.0" y="1000.0" type="qcurve" smooth="yes"/>
      <point x="888.0" y="930.0" type="line" smooth="yes"/>
      <point x="888.0" y="878.0"/>
      <point x="845.0" y="822.0" type="qcurve" smooth="yes"/>
      <point x="561.0" y="453.0" type="line"/>
      <point x="561.0" y="449.0" type="line"/>
      <point x="750.0" y="411.0"/>
      <point x="930.0" y="180.0"/>
      <point x="930.0" y="14.0" type="qcurve" smooth="yes"/>
      <point x="930.0" y="-195.0"/>
      <point x="702.0" y="-420.0"/>
      <point x="476.0" y="-420.0" type="qcurve" smooth="yes"/>
      <point x="321.0" y="-420.0"/>
      <point x="135.0" y="-354.0"/>
    </contour>
  </outline>
</glyph>
<glyph name="tilde" format="2">
  <advance width="614"/>
  <unicode hex="02DC"/>
  <outline>
    <contour>
      <point x="-12.0" y="1184.0" type="line" smooth="yes"/>
      <point x="-43.0" y="1198.0"/>
      <point x="-27.0" y="1245.0" type="qcurve" smooth="yes"/>
      <point x="-5.0" y="1308.0"/>
      <point x="106.0" y="1396.0"/>
      <point x="186.0" y="1396.0" type="qcurve" smooth="yes"/>
      <point x="254.0" y="1396.0"/>
      <point x="406.0" y="1292.0"/>
      <point x="441.0" y="1292.0" type="qcurve" smooth="yes"/>
      <point x="472.0" y="1292.0"/>
      <point x="515.0" y="1319.0"/>
      <point x="530.0" y="1349.0" type="qcurve" smooth="yes"/>
      <point x="551.0" y="1392.0"/>
      <point x="584.0" y="1377.0" type="qcurve" smooth="yes"/>
      <point x="626.0" y="1358.0" type="line" smooth="yes"/>
      <point x="657.0" y="1344.0"/>
      <point x="641.0" y="1297.0" type="qcurve" smooth="yes"/>
      <point x="619.0" y="1234.0"/>
      <point x="508.0" y="1146.0"/>
      <point x="428.0" y="1146.0" type="qcurve" smooth="yes"/>
      <point x="360.0" y="1146.0"/>
      <point x="208.0" y="1250.0"/>
      <point x="173.0" y="1250.0" type="qcurve" smooth="yes"/>
      <point x="142.0" y="1250.0"/>
      <point x="99.0" y="1223.0"/>
      <point x="84.0" y="1193.0" type="qcurve" smooth="yes"/>
      <point x="63.0" y="1150.0"/>
      <point x="30.0" y="1165.0" type="qcurve" smooth="yes"/>
    </contour>
  </outline>
</glyph>
<glyph name="uni0394" format="2">
  <advance width="1432"/>
  <unicode hex="0394"/>
  <outline>
    <contour>
      <point x="122.0" y="0.0" type="line" smooth="yes"/>
      <point x="52.0" y="0.0"/>
      <point x="52.0" y="75.0" type="qcurve" smooth="yes"/>
      <point x="52.0" y="105.0" type="line" smooth="yes"/>
      <point x="52.0" y="141.0"/>
      <point x="75.0" y="197.0" type="qcurve" smooth="yes"/>
      <point x="552.0" y="1353.0" type="line" smooth="yes"/>
      <point x="585.0" y="1434.0"/>
      <point x="646.0" y="1434.0" type="qcurve" smooth="yes"/>
      <point x="786.0" y="1434.0" type="line" smooth="yes"/>
      <point x="847.0" y="1433.0"/>
      <point x="880.0" y="1353.0" type="qcurve" smooth="yes"/>
      <point x="1357.0" y="197.0" type="line" smooth="yes"/>
      <point x="1380.0" y="141.0"/>
      <point x="1380.0" y="105.0" type="qcurve" smooth="yes"/>
      <point x="1380.0" y="75.0" type="line" smooth="yes"/>
      <point x="1380.0" y="0.0"/>
      <point x="1310.0" y="0.0" type="qcurve" smooth="yes"/>
    </contour>
    <contour>
      <point x="401.0" y="244.0" type="line"/>
      <point x="461.0" y="248.0"/>
      <point x="501.0" y="248.0" type="qcurve" smooth="yes"/>
      <point x="931.0" y="248.0" type="line" smooth="yes"/>
      <point x="971.0" y="248.0"/>
      <point x="1031.0" y="244.0" type="qcurve"/>
      <point x="1031.0" y="250.0" type="line"/>
      <point x="759.0" y="904.0" type="line" smooth="yes"/>
      <point x="740.0" y="950.0"/>
      <point x="723.0" y="1011.0"/>
      <point x="718.0" y="1061.0" type="qcurve"/>
      <point x="714.0" y="1061.0" type="line"/>
      <point x="709.0" y="1011.0"/>
      <point x="692.0" y="950.0"/>
      <point x="673.0" y="904.0" type="qcurve" smooth="yes"/>
      <point x="401.0" y="250.0" type="line"/>
    </contour>
  </outline>
</glyph>
<glyph name="Sigma" format="2">
  <advance width="1247"/>
  <unicode hex="03A3"/>
  <outline>
    <contour>
      <point x="145.0" y="0.0" type="line" smooth="yes"/>
      <point x="70.0" y="0.0"/>
      <point x="70.0" y="65.0" type="qcurve" smooth="yes"/>
      <point x="70.0" y="147.0" type="line" smooth="yes"/>
      <point x="70.0" y="216.0"/>
      <point x="121.0" y="286.0" type="qcurve" smooth="yes"/>
      <point x="416.0" y="693.0" type="line" smooth="yes"/>
      <point x="464.0" y="759.0"/>
      <point x="416.0" y="824.0" type="qcurve" smooth="yes"/>
      <point x="138.0" y="1201.0" type="line" smooth="yes"/>
      <point x="103.0" y="1248.0"/>
      <point x="103.0" y="1302.0" type="qcurve" smooth="yes"/>
      <point x="103.0" y="1369.0" type="line" smooth="yes"/>
      <point x="103.0" y="1434.0"/>
      <point x="178.0" y="1434.0" type="qcurve" smooth="yes"/>
      <point x="1074.0" y="1434.0" type="line" smooth="yes"/>
      <point x="1149.0" y="1434.0"/>
      <point x="1149.0" y="1369.0" type="qcurve" smooth="yes"/>
      <point x="1149.0" y="1251.0" type="line" smooth="yes"/>
      <point x="1149.0" y="1186.0"/>
      <point x="1074.0" y="1186.0" type="qcurve" smooth="yes"/>
      <point x="624.0" y="1186.0" type="line" smooth="yes"/>
      <point x="564.0" y="1186.0"/>
      <point x="504.0" y="1191.0" type="qcurve"/>
      <point x="504.0" y="1184.0" type="line"/>
      <point x="773.0" y="820.0" type="line" smooth="yes"/>
      <point x="820.0" y="756.0"/>
      <point x="774.0" y="693.0" type="qcurve" smooth="yes"/>
      <point x="451.0" y="250.0" type="line"/>
      <point x="451.0" y="243.0" type="line"/>
      <point x="511.0" y="248.0"/>
      <point x="571.0" y="248.0" type="qcurve" smooth="yes"/>
      <point x="1104.0" y="248.0" type="line" smooth="yes"/>
      <point x="1179.0" y="248.0"/>
      <point x="1179.0" y="183.0" type="qcurve" smooth="yes"/>
      <point x="1179.0" y="65.0" type="line" smooth="yes"/>
      <point x="1179.0" y="0.0"/>
      <point x="1104.0" y="0.0" type="qcurve" smooth="yes"/>
    </contour>
  </outline>
</glyph>
<glyph name="uni03A9" format="2">
  <advance width="1624"/>
  <unicode hex="03A9"/>
  <outline>
    <contour>
      <point x="133.0" y="0.0" type="line" smooth="yes"/>
      <point x="58.0" y="0.0"/>
      <point x="58.0" y="65.0" type="qcurve" smooth="yes"/>
      <point x="58.0" y="183.0" type="line" smooth="yes"/>
      <point x="58.0" y="248.0"/>
      <point x="133.0" y="248.0" type="qcurve" smooth="yes"/>
      <point x="294.0" y="248.0" type="line" smooth="yes"/>
      <point x="344.0" y="248.0"/>
      <point x="394.0" y="244.0" type="qcurve"/>
      <point x="394.0" y="250.0" type="line"/>
      <point x="296.0" y="309.0"/>
      <point x="115.0" y="639.0"/>
      <point x="115.0" y="800.0" type="qcurve" smooth="yes"/>
      <point x="115.0" y="1040.0"/>
      <point x="452.0" y="1468.0"/>
      <point x="812.0" y="1468.0" type="qcurve" smooth="yes"/>
      <point x="1172.0" y="1468.0"/>
      <point x="1509.0" y="1040.0"/>
      <point x="1509.0" y="800.0" type="qcurve" smooth="yes"/>
      <point x="1509.0" y="639.0"/>
      <point x="1328.0" y="309.0"/>
      <point x="1230.0" y="250.0" type="qcurve"/>
      <point x="1230.0" y="244.0" type="line"/>
      <point x="1280.0" y="248.0"/>
      <point x="1330.0" y="248.0" type="qcurve" smooth="yes"/>
      <point x="1491.0" y="248.0" type="line" smooth="yes"/>
      <point x="1566.0" y="248.0"/>
      <point x="1566.0" y="183.0" type="qcurve" smooth="yes"/>
      <point x="1566.0" y="65.0" type="line" smooth="yes"/>
      <point x="1566.0" y="0.0"/>
      <point x="1491.0" y="0.0" type="qcurve" smooth="yes"/>
      <point x="997.0" y="0.0" type="line" smooth="yes"/>
      <point x="922.0" y="0.0"/>
      <point x="922.0" y="65.0" type="qcurve" smooth="yes"/>
      <point x="922.0" y="139.0" type="line" smooth="yes"/>
      <point x="922.0" y="199.0"/>
      <point x="963.0" y="227.0" type="qcurve" smooth="yes"/>
      <point x="1055.0" y="289.0"/>
      <point x="1197.0" y="537.0"/>
      <point x="1197.0" y="757.0" type="qcurve" smooth="yes"/>
      <point x="1197.0" y="972.0"/>
      <point x="1006.0" y="1232.0"/>
      <point x="812.0" y="1232.0" type="qcurve" smooth="yes"/>
      <point x="618.0" y="1232.0"/>
      <point x="427.0" y="972.0"/>
      <point x="427.0" y="757.0" type="qcurve" smooth="yes"/>
      <point x="427.0" y="537.0"/>
      <point x="569.0" y="289.0"/>
      <point x="661.0" y="227.0" type="qcurve" smooth="yes"/>
      <point x="702.0" y="199.0"/>
      <point x="702.0" y="139.0" type="qcurve" smooth="yes"/>
      <point x="702.0" y="65.0" type="line" smooth="yes"/>
      <point x="702.0" y="0.0"/>
      <point x="627.0" y="0.0" type="qcurve" smooth="yes"/>
    </contour>
  </outline>
</glyph>
<glyph name="afii10051" format="2">
  <advance width="1615"/>
  <unicode hex="0402"/>
  <outline>
    <contour>
      <point x="109.0" y="1178.0" type="line" smooth="yes"/>
      <point x="34.0" y="1178.0"/>
      <point x="34.0" y="1243.0" type="qcurve" smooth="yes"/>
      <point x="34.0" y="1369.0" type="line" smooth="yes"/>
      <point x="34.0" y="1434.0"/>
      <point x="109.0" y="1434.0" type="qcurve" smooth="yes"/>
      <point x="1137.0" y="1434.0" type="line" smooth="yes"/>
      <point x="1212.0" y="1434.0"/>
      <point x="1212.0" y="1369.0" type="qcurve" smooth="yes"/>
      <point x="1212.0" y="1243.0" type="line" smooth="yes"/>
      <point x="1212.0" y="1178.0"/>
      <point x="1137.0" y="1178.0" type="qcurve" smooth="yes"/>
      <point x="739.0" y="1178.0" type="line"/>
      <point x="739.0" y="943.0" type="line" smooth="yes"/>
      <point x="739.0" y="883.0"/>
      <point x="734.0" y="823.0" type="qcurve"/>
      <point x="741.0" y="823.0" type="line"/>
      <point x="813.0" y="860.0"/>
      <point x="993.0" y="910.0"/>
      <point x="1078.0" y="910.0" type="qcurve" smooth="yes"/>
      <point x="1287.0" y="910.0"/>
      <point x="1515.0" y="640.0"/>
      <point x="1515.0" y="434.0" type="qcurve" smooth="yes"/>
      <point x="1515.0" y="166.0"/>
      <point x="1314.0" y="-34.0"/>
      <point x="1082.0" y="-34.0" type="qcurve" smooth="yes"/>
      <point x="995.0" y="-34.0"/>
      <point x="940.0" y="-16.0" type="qcurve" smooth="yes"/>
      <point x="878.0" y="4.0"/>
      <point x="891.0" y="50.0" type="qcurve" smooth="yes"/>
      <point x="924.0" y="170.0" type="line" smooth="yes"/>
      <point x="938.0" y="222.0"/>
      <point x="983.0" y="212.0" type="qcurve" smooth="yes"/>
      <point x="1028.0" y="202.0"/>
      <point x="1069.0" y="202.0" type="qcurve" smooth="yes"/>
      <point x="1146.0" y="202.0"/>
      <point x="1203.0" y="298.0"/>
      <point x="1203.0" y="422.0" type="qcurve" smooth="yes"/>
      <point x="1203.0" y="538.0"/>
      <point x="1096.0" y="674.0"/>
      <point x="1011.0" y="674.0" type="qcurve" smooth="yes"/>
      <point x="946.0" y="674.0"/>
      <point x="827.0" y="648.0"/>
      <point x="739.0" y="607.0" type="qcurve"/>
      <point x="739.0" y="55.0" type="line" smooth="yes"/>
      <point x="739.0" y="0.0"/>
      <point x="689.0" y="0.0" type="qcurve" smooth="yes"/>
      <point x="497.0" y="0.0" type="line" smooth="yes"/>
      <point x="447.0" y="0.0"/>
      <point x="447.0" y="55.0" type="qcurve" smooth="yes"/>
      <point x="447.0" y="1178.0" type="line"/>
    </contour>
  </outline>
</glyph>
<glyph name="afii10024" format="2">
  <advance width="2040"/>
  <unicode hex="0416"/>
  <outline>
    <contour>
      <point x="96.0" y="0.0" type="line" smooth="yes"/>
      <point x="5.0" y="0.0"/>
      <point x="58.0" y="86.0" type="qcurve" smooth="yes"/>
      <point x="299.0" y="480.0" type="line" smooth="yes"/>
      <point x="370.0" y="596.0"/>
      <point x="497.0" y="705.0"/>
      <point x="573.0" y="734.0" type="qcurve"/>
      <point x="573.0" y="735.0" type="line"/>
      <point x="516.0" y="765.0"/>
      <point x="392.0" y="896.0"/>
      <point x="353.0" y="954.0" type="qcurve" smooth="yes"/>
      <point x="89.0" y="1348.0" type="line" smooth="yes"/>
      <point x="31.0" y="1434.0"/>
      <point x="127.0" y="1434.0" type="qcurve" smooth="yes"/>
      <point x="304.0" y="1434.0" type="line" smooth="yes"/>
      <point x="357.0" y="1434.0"/>
      <point x="394.0" y="1375.0" type="qcurve" smooth="yes"/>
      <point x="599.0" y="1050.0" type="line" smooth="yes"/>
      <point x="651.0" y="968.0"/>
      <point x="794.0" y="855.0"/>
      <point x="851.0" y="855.0" type="qcurve" smooth="yes"/>
      <point x="874.0" y="855.0" type="line"/>
      <point x="874.0" y="1359.0" type="line" smooth="yes"/>
      <point x="874.0" y="1434.0"/>
      <point x="944.0" y="1434.0" type="qcurve" smooth="yes"/>
      <point x="1096.0" y="1434.0" type="line" smooth="yes"/>
      <point x="1166.0" y="1434.0"/>
      <point x="1166.0" y="1359.0" type="qcurve" smooth="yes"/>
      <point x="1166.0" y="855.0" type="line"/>
      <point x="1189.0" y="855.0" type="line" smooth="yes"/>
      <point x="1246.0" y="855.0"/>
      <point x="1389.0" y="968.0"/>
      <point x="1441.0" y="1050.0" type="qcurve" smooth="yes"/>
      <point x="1646.0" y="1375.0" type="line" smooth="yes"/>
      <point x="1683.0" y="1434.0"/>
      <point x="1736.0" y="1434.0" type="qcurve" smooth="yes"/>
      <point x="1913.0" y="1434.0" type="line" smooth="yes"/>
      <point x="2009.0" y="1434.0"/>
      <point x="1951.0" y="1348.0" type="qcurve" smooth="yes"/>
      <point x="1687.0" y="954.0" type="line" smooth="yes"/>
      <point x="1648.0" y="896.0"/>
      <point x="1524.0" y="765.0"/>
      <point x="1467.0" y="735.0" type="qcurve"/>
      <point x="1467.0" y="734.0" type="line"/>
      <point x="1543.0" y="705.0"/>
      <point x="1670.0" y="596.0"/>
      <point x="1741.0" y="480.0" type="qcurve" smooth="yes"/>
      <point x="1982.0" y="86.0" type="line" smooth="yes"/>
      <point x="2035.0" y="0.0"/>
      <point x="1944.0" y="0.0" type="qcurve" smooth="yes"/>
      <point x="1757.0" y="0.0" type="line" smooth="yes"/>
      <point x="1700.0" y="0.0"/>
      <point x="1667.0" y="59.0" type="qcurve" smooth="yes"/>
      <point x="1483.0" y="384.0" type="line" smooth="yes"/>
      <point x="1431.0" y="476.0"/>
      <point x="1267.0" y="611.0"/>
      <point x="1204.0" y="611.0" type="qcurve" smooth="yes"/>
      <point x="1166.0" y="611.0" type="line"/>
      <point x="1166.0" y="75.0" type="line" smooth="yes"/>
      <point x="1166.0" y="0.0"/>
      <point x="1096.0" y="0.0" type="qcurve" smooth="yes"/>
      <point x="944.0" y="0.0" type="line" smooth="yes"/>
      <point x="874.0" y="0.0"/>
      <point x="874.0" y="75.0" type="qcurve" smooth="yes"/>
      <point x="874.0" y="611.0" type="line"/>
      <point x="836.0" y="611.0" type="line" smooth="yes"/>
      <point x="773.0" y="611.0"/>
      <point x="609.0" y="476.0"/>
      <point x="557.0" y="384.0" type="qcurve" smooth="yes"/>
      <point x="373.0" y="59.0" type="line" smooth="yes"/>
      <point x="340.0" y="0.0"/>
      <point x="283.0" y="0.0" type="qcurve" smooth="yes"/>
    </contour>
  </outline>
</glyph>
<glyph name="afii10025" format="2">
  <advance width="1354"/>
  <unicode hex="0417"/>
  <outline>
    <contour>
      <point x="124.0" y="150.0" type="qcurve" smooth="yes"/>
      <point x="74.0" y="207.0"/>
      <point x="115.0" y="249.0" type="qcurve" smooth="yes"/>
      <point x="211.0" y="348.0" type="line" smooth="yes"/>
      <point x="253.0" y="392.0"/>
      <point x="321.0" y="331.0" type="qcurve" smooth="yes"/>
      <point x="369.0" y="288.0"/>
      <point x="519.0" y="202.0"/>
      <point x="642.0" y="202.0" type="qcurve" smooth="yes"/>
      <point x="759.0" y="202.0"/>
      <point x="938.0" y="288.0"/>
      <point x="938.0" y="414.0" type="qcurve" smooth="yes"/>
      <point x="938.0" y="540.0"/>
      <point x="789.0" y="636.0"/>
      <point x="666.0" y="636.0" type="qcurve" smooth="yes"/>
      <point x="500.0" y="636.0" type="line" smooth="yes"/>
      <point x="425.0" y="636.0"/>
      <point x="425.0" y="699.0" type="qcurve" smooth="yes"/>
      <point x="425.0" y="807.0" type="line" smooth="yes"/>
      <point x="425.0" y="872.0"/>
      <point x="500.0" y="872.0" type="qcurve" smooth="yes"/>
      <point x="624.0" y="872.0" type="line" smooth="yes"/>
      <point x="793.0" y="872.0"/>
      <point x="903.0" y="978.0"/>
      <point x="903.0" y="1062.0" type="qcurve" smooth="yes"/>
      <point x="903.0" y="1149.0"/>
      <point x="778.0" y="1232.0"/>
      <point x="642.0" y="1232.0" type="qcurve" smooth="yes"/>
      <point x="537.0" y="1232.0"/>
      <point x="380.0" y="1167.0"/>
      <point x="341.0" y="1131.0" type="qcurve" smooth="yes"/>
      <point x="276.0" y="1072.0"/>
      <point x="230.0" y="1122.0" type="qcurve" smooth="yes"/>
      <point x="147.0" y="1213.0" type="line" smooth="yes"/>
      <point x="100.0" y="1264.0"/>
      <point x="160.0" y="1313.0" type="qcurve" smooth="yes"/>
      <point x="267.0" y="1401.0"/>
      <point x="504.0" y="1468.0"/>
      <point x="652.0" y="1468.0" type="qcurve" smooth="yes"/>
      <point x="922.0" y="1468.0"/>
      <point x="1199.0" y="1260.0"/>
      <point x="1199.0" y="1092.0" type="qcurve" smooth="yes"/>
      <point x="1199.0" y="948.0"/>
      <point x="1044.0" y="795.0"/>
      <point x="931.0" y="767.0" type="qcurve"/>
      <point x="931.0" y="763.0" type="line"/>
      <point x="1056.0" y="750.0"/>
      <point x="1250.0" y="552.0"/>
      <point x="1250.0" y="397.0" type="qcurve" smooth="yes"/>
      <point x="1250.0" y="195.0"/>
      <point x="927.0" y="-34.0"/>
      <point x="637.0" y="-34.0" type="qcurve" smooth="yes"/>
      <point x="431.0" y="-34.0"/>
      <point x="200.0" y="63.0"/>
    </contour>
  </outline>
</glyph>
<glyph name="afii10042" format="2">
  <advance width="2140"/>
  <unicode hex="0428"/>
  <outline>
    <contour>
      <point x="230.0" y="0.0" type="line" smooth="yes"/>
      <point x="160.0" y="0.0"/>
      <point x="160.0" y="75.0" type="qcurve" smooth="yes"/>
      <point x="160.0" y="1359.0" type="line" smooth="yes"/>
      <point x="160.0" y="1434.0"/>
      <point x="230.0" y="1434.0" type="qcurve" smooth="yes"/>
      <point x="382.0" y="1434.0" type="line" smooth="yes"/>
      <point x="452.0" y="1434.0"/>
      <point x="452.0" y="1359.0" type="qcurve" smooth="yes"/>
      <point x="452.0" y="248.0" type="line"/>
      <point x="924.0" y="248.0" type="line"/>
      <point x="924.0" y="1359.0" type="line" smooth="yes"/>
      <point x="924.0" y="1434.0"/>
      <point x="994.0" y="1434.0" type="qcurve" smooth="yes"/>
      <point x="1146.0" y="1434.0" type="line" smooth="yes"/>
      <point x="1216.0" y="1434.0"/>
      <point x="1216.0" y="1359.0" type="qcurve" smooth="yes"/>
      <point x="1216.0" y="248.0" type="line"/>
      <point x="1688.0" y="248.0" type="line"/>
      <point x="1688.0" y="1359.0" type="line" smooth="yes"/>
      <point x="1688.0" y="1434.0"/>
      <point x="1758.0" y="1434.0" type="qcurve" smooth="yes"/>
      <point x="1910.0" y="1434.0" type="line" smooth="yes"/>
      <point x="1980.0" y="1434.0"/>
      <point x="1980.0" y="1359.0" type="qcurve" smooth="yes"/>
      <point x="1980.0" y="75.0" type="line" smooth="yes"/>
      <point x="1980.0" y="0.0"/>
      <point x="1910.0" y="0.0" type="qcurve" smooth="yes"/>
    </contour>
  </outline>
</glyph>
<glyph name="afii10044" format="2">
  <advance width="1746"/>
  <unicode hex="042A"/>
  <outline>
    <contour>
      <point x="109.0" y="1186.0" type="line" smooth="yes"/>
      <point x="34.0" y="1186.0"/>
      <point x="34.0" y="1251.0" type="qcurve" smooth="yes"/>
      <point x="34.0" y="1369.0" type="line" smooth="yes"/>
      <point x="34.0" y="1434.0"/>
      <point x="109.0" y="1434.0" type="qcurve" smooth="yes"/>
      <point x="778.0" y="1434.0" type="line" smooth="yes"/>
      <point x="848.0" y="1434.0"/>
      <point x="848.0" y="1359.0" type="qcurve" smooth="yes"/>
      <point x="848.0" y="870.0" type="line"/>
      <point x="1003.0" y="870.0" type="line" smooth="yes"/>
      <point x="1373.0" y="870.0"/>
      <point x="1661.0" y="635.0"/>
      <point x="1661.0" y="435.0" type="qcurve" smooth="yes"/>
      <point x="1661.0" y="235.0"/>
      <point x="1373.0" y="0.0"/>
      <point x="1003.0" y="0.0" type="qcurve" smooth="yes"/>
      <point x="626.0" y="0.0" type="line" smooth="yes"/>
      <point x="556.0" y="0.0"/>
      <point x="556.0" y="75.0" type="qcurve" smooth="yes"/>
      <point x="556.0" y="1186.0" type="line"/>
    </contour>
    <contour>
      <point x="848.0" y="244.0" type="line"/>
      <point x="974.0" y="244.0" type="line" smooth="yes"/>
      <point x="1184.0" y="244.0"/>
      <point x="1349.0" y="315.0"/>
      <point x="1349.0" y="435.0" type="qcurve" smooth="yes"/>
      <point x="1349.0" y="555.0"/>
      <point x="1184.0" y="626.0"/>
      <point x="974.0" y="626.0" type="qcurve" smooth="yes"/>
      <point x="848.0" y="626.0" type="line"/>
    </contour>
  </outline>
</glyph>
<glyph name="afii10049" format="2">
  <advance width="1426"/>
  <unicode hex="042F"/>
  <outline>
    <contour>
      <point x="151.0" y="0.0" type="line" smooth="yes"/>
      <point x="55.0" y="0.0"/>
      <point x="113.0" y="86.0" type="qcurve" smooth="yes"/>
      <point x="327.0" y="406.0" type="line" smooth="yes"/>
      <point x="356.0" y="449.0"/>
      <point x="489.0" y="598.0"/>
      <point x="553.0" y="636.0" type="qcurve"/>
      <point x="553.0" y="638.0" type="line"/>
      <point x="352.0" y="648.0"/>
      <point x="133.0" y="867.0"/>
      <point x="133.0" y="1011.0" type="qcurve" smooth="yes"/>
      <point x="133.0" y="1218.0"/>
      <point x="409.0" y="1434.0"/>
      <point x="732.0" y="1434.0" type="qcurve" smooth="yes"/>
      <point x="1196.0" y="1434.0" type="line" smooth="yes"/>
      <point x="1266.0" y="1434.0"/>
      <point x="1266.0" y="1359.0" type="qcurve" smooth="yes"/>
      <point x="1266.0" y="75.0" type="line" smooth="yes"/>
      <point x="1266.0" y="0.0"/>
      <point x="1196.0" y="0.0" type="qcurve" smooth="yes"/>
      <point x="1044.0" y="0.0" type="line" smooth="yes"/>
      <point x="974.0" y="0.0"/>
      <point x="974.0" y="75.0" type="qcurve" smooth="yes"/>
      <point x="974.0" y="573.0" type="line"/>
      <point x="913.0" y="573.0" type="line" smooth="yes"/>
      <point x="816.0" y="573.0"/>
      <point x="698.0" y="473.0"/>
      <point x="639.0" y="382.0" type="qcurve" smooth="yes"/>
      <point x="430.0" y="59.0" type="line" smooth="yes"/>
      <point x="392.0" y="0.0"/>
      <point x="340.0" y="0.0" type="qcurve" smooth="yes"/>
    </contour>
    <contour>
      <point x="429.0" y="1013.0" type="qcurve" smooth="yes"/>
      <point x="429.0" y="882.0"/>
      <point x="643.0" y="817.0"/>
      <point x="784.0" y="817.0" type="qcurve" smooth="yes"/>
      <point x="974.0" y="817.0" type="line"/>
      <point x="974.0" y="1190.0" type="line"/>
      <point x="746.0" y="1190.0" type="line" smooth="yes"/>
      <point x="595.0" y="1190.0"/>
      <point x="429.0" y="1110.0"/>
    </contour>
  </outline>
</glyph>
<glyph name="afii10066" format="2">
  <advance width="1210"/>
  <unicode hex="0431"/>
  <outline>
    <contour>
      <point x="84.0" y="598.0" type="qcurve" smooth="yes"/>
      <point x="84.0" y="712.0"/>
      <point x="127.0" y="1026.0"/>
      <point x="202.0" y="1224.0"/>
      <point x="316.0" y="1342.0"/>
      <point x="476.0" y="1421.0"/>
      <point x="544.0" y="1430.0" type="qcurve" smooth="yes"/>
      <point x="644.0" y="1444.0"/>
      <point x="807.0" y="1449.0"/>
      <point x="843.0" y="1457.0" type="qcurve" smooth="yes"/>
      <point x="882.0" y="1466.0"/>
      <point x="914.0" y="1514.0"/>
      <point x="960.0" y="1514.0" type="qcurve" smooth="yes"/>
      <point x="1030.0" y="1514.0" type="line" smooth="yes"/>
      <point x="1069.0" y="1514.0"/>
      <point x="1069.0" y="1469.0" type="qcurve" smooth="yes"/>
      <point x="1069.0" y="1394.0"/>
      <point x="970.0" y="1279.0"/>
      <point x="882.0" y="1264.0" type="qcurve" smooth="yes"/>
      <point x="841.0" y="1257.0"/>
      <point x="700.0" y="1248.0"/>
      <point x="530.0" y="1230.0"/>
      <point x="442.0" y="1186.0" type="qcurve" smooth="yes"/>
      <point x="261.0" y="1095.0"/>
      <point x="253.0" y="845.0" type="qcurve"/>
      <point x="261.0" y="841.0" type="line"/>
      <point x="281.0" y="915.0"/>
      <point x="477.0" y="1070.0"/>
      <point x="633.0" y="1070.0" type="qcurve" smooth="yes"/>
      <point x="864.0" y="1070.0"/>
      <point x="1130.0" y="780.0"/>
      <point x="1130.0" y="525.0" type="qcurve" smooth="yes"/>
      <point x="1130.0" y="270.0"/>
      <point x="867.0" y="-20.0"/>
      <point x="607.0" y="-20.0" type="qcurve" smooth="yes"/>
      <point x="334.0" y="-20.0"/>
      <point x="84.0" y="306.0"/>
    </contour>
    <contour>
      <point x="380.0" y="525.0" type="qcurve" smooth="yes"/>
      <point x="380.0" y="335.0"/>
      <point x="497.0" y="176.0"/>
      <point x="607.0" y="176.0" type="qcurve" smooth="yes"/>
      <point x="717.0" y="176.0"/>
      <point x="834.0" y="335.0"/>
      <point x="834.0" y="525.0" type="qcurve" smooth="yes"/>
      <point x="834.0" y="715.0"/>
      <point x="717.0" y="874.0"/>
      <point x="607.0" y="874.0" type="qcurve" smooth="yes"/>
      <point x="497.0" y="874.0"/>
      <point x="380.0" y="715.0"/>
    </contour>
  </outline>
</glyph>
<glyph name="afii10067" format="2">
  <advance width="1106"/>
  <unicode hex="0432"/>
  <outline>
    <contour>
      <point x="196.0" y="0.0" type="line" smooth="yes"/>
      <point x="136.0" y="0.0"/>
      <point x="136.0" y="60.0" type="qcurve" smooth="yes"/>
      <point x="136.0" y="990.0" type="line" smooth="yes"/>
      <point x="136.0" y="1050.0"/>
      <point x="196.0" y="1050.0" type="qcurve" smooth="yes"/>
      <point x="555.0" y="1050.0" type="line" smooth="yes"/>
      <point x="768.0" y="1050.0"/>
      <point x="979.0" y="900.0"/>
      <point x="979.0" y="797.0" type="qcurve" smooth="yes"/>
      <point x="979.0" y="687.0"/>
      <point x="866.0" y="576.0"/>
      <point x="799.0" y="553.0" type="qcurve"/>
      <point x="799.0" y="550.0" type="line"/>
      <point x="917.0" y="510.0"/>
      <point x="1012.0" y="387.0"/>
      <point x="1012.0" y="296.0" type="qcurve" smooth="yes"/>
      <point x="1012.0" y="165.0"/>
      <point x="851.0" y="0.0"/>
      <point x="623.0" y="0.0" type="qcurve" smooth="yes"/>
    </contour>
    <contour>
      <point x="416.0" y="196.0" type="line"/>
      <point x="505.0" y="196.0" type="line" smooth="yes"/>
      <point x="625.0" y="196.0"/>
      <point x="716.0" y="255.0"/>
      <point x="716.0" y="312.0" type="qcurve" smooth="yes"/>
      <point x="716.0" y="375.0"/>
      <point x="625.0" y="447.0"/>
      <point x="505.0" y="447.0" type="qcurve" smooth="yes"/>
      <point x="416.0" y="447.0" type="line"/>
    </contour>
    <contour>
      <point x="416.0" y="637.0" type="line"/>
      <point x="510.0" y="637.0" type="line" smooth="yes"/>
      <point x="597.0" y="637.0"/>
      <point x="699.0" y="705.0"/>
      <point x="699.0" y="761.0" type="qcurve" smooth="yes"/>
      <point x="699.0" y="825.0"/>
      <point x="573.0" y="854.0"/>
      <point x="515.0" y="854.0" type="qcurve" smooth="yes"/>
      <point x="416.0" y="854.0" type="line"/>
    </contour>
  </outline>
</glyph>
<glyph name="afii10074" format="2">
  <advance width="1212"/>
  <unicode hex="0438"/>
  <outline>
    <contour>
      <point x="187.0" y="0.0" type="line" smooth="yes"/>
      <point x="136.0" y="0.0"/>
      <point x="136.0" y="60.0" type="qcurve" smooth="yes"/>
      <point x="136.0" y="990.0" type="line" smooth="yes"/>
      <point x="136.0" y="1050.0"/>
      <point x="196.0" y="1050.0" type="qcurve" smooth="yes"/>
      <point x="356.0" y="1050.0" type="line" smooth="yes"/>
      <point x="416.0" y="1050.0"/>
      <point x="416.0" y="990.0" type="qcurve" smooth="yes"/>
      <point x="416.0" y="487.0" type="line" smooth="yes"/>
      <point x="416.0" y="447.0"/>
      <point x="412.0" y="407.0" type="qcurve"/>
      <point x="416.0" y="407.0" type="line"/>
      <point x="710.0" y="985.0" type="line" smooth="yes"/>
      <point x="743.0" y="1050.0"/>
      <point x="815.0" y="1050.0" type="qcurve" smooth="yes"/>
      <point x="1016.0" y="1050.0" type="line" smooth="yes"/>
      <point x="1076.0" y="1050.0"/>
      <point x="1076.0" y="990.0" type="qcurve" smooth="yes"/>
      <point x="1076.0" y="60.0" type="line" smooth="yes"/>
      <point x="1076.0" y="0.0"/>
      <point x="1016.0" y="0.0" type="qcurve" smooth="yes"/>
      <point x="856.0" y="0.0" type="line" smooth="yes"/>
      <point x="796.0" y="0.0"/>
      <point x="796.0" y="60.0" type="qcurve" smooth="yes"/>
      <point x="796.0" y="563.0" type="line" smooth="yes"/>
      <point x="796.0" y="604.0"/>
      <point x="800.0" y="643.0" type="qcurve"/>
      <point x="796.0" y="643.0" type="line"/>
      <point x="502.0" y="65.0" type="line" smooth="yes"/>
      <point x="469.0" y="0.0"/>
      <point x="397.0" y="0.0" type="qcurve" smooth="yes"/>
    </contour>
  </outline>
</glyph>
<glyph name="afii10086" format="2">
  <advance width="1738"/>
  <unicode hex="0444"/>
  <outline>
    <contour>
      <point x="80.0" y="525.0" type="qcurve" smooth="yes"/>
      <point x="80.0" y="760.0"/>
      <point x="296.0" y="1070.0"/>
      <point x="496.0" y="1070.0" type="qcurve" smooth="yes"/>
      <point x="569.0" y="1070.0"/>
      <point x="677.0" y="1023.0"/>
      <point x="729.0" y="937.0" type="qcurve"/>
      <point x="733.0" y="937.0" type="line"/>
      <point x="729.0" y="977.0"/>
      <point x="729.0" y="1017.0" type="qcurve" smooth="yes"/>
      <point x="729.0" y="1416.0" type="line" smooth="yes"/>
      <point x="729.0" y="1476.0"/>
      <point x="789.0" y="1476.0" type="qcurve" smooth="yes"/>
      <point x="949.0" y="1476.0" type="line" smooth="yes"/>
      <point x="1009.0" y="1476.0"/>
      <point x="1009.0" y="1416.0" type="qcurve" smooth="yes"/>
      <point x="1009.0" y="1017.0" type="line" smooth="yes"/>
      <point x="1009.0" y="977.0"/>
      <point x="1005.0" y="937.0" type="qcurve"/>
      <point x="1009.0" y="937.0" type="line"/>
      <point x="1061.0" y="1023.0"/>
      <point x="1169.0" y="1070.0"/>
      <point x="1242.0" y="1070.0" type="qcurve" smooth="yes"/>
      <point x="1442.0" y="1070.0"/>
      <point x="1658.0" y="760.0"/>
      <point x="1658.0" y="525.0" type="qcurve" smooth="yes"/>
      <point x="1658.0" y="290.0"/>
      <point x="1442.0" y="-20.0"/>
      <point x="1242.0" y="-20.0" type="qcurve" smooth="yes"/>
      <point x="1169.0" y="-20.0"/>
      <point x="1061.0" y="27.0"/>
      <point x="1009.0" y="113.0" type="qcurve"/>
      <point x="1005.0" y="113.0" type="line"/>
      <point x="1009.0" y="73.0"/>
      <point x="1009.0" y="33.0" type="qcurve" smooth="yes"/>
      <point x="1009.0" y="-340.0" type="line" smooth="yes"/>
      <point x="1009.0" y="-400.0"/>
      <point x="949.0" y="-400.0" type="qcurve" smooth="yes"/>
      <point x="789.0" y="-400.0" type="line" smooth="yes"/>
      <point x="729.0" y="-400.0"/>
      <point x="729.0" y="-340.0" type="qcurve" smooth="yes"/>
      <point x="729.0" y="33.0" type="line" smooth="yes"/>
      <point x="729.0" y="73.0"/>
      <point x="733.0" y="113.0" type="qcurve"/>
      <point x="729.0" y="113.0" type="line"/>
      <point x="677.0" y="27.0"/>
      <point x="569.0" y="-20.0"/>
      <point x="496.0" y="-20.0" type="qcurve" smooth="yes"/>
      <point x="296.0" y="-20.0"/>
      <point x="80.0" y="290.0"/>
    </contour>
    <contour>
      <point x="376.0" y="525.0" type="qcurve" smooth="yes"/>
      <point x="376.0" y="370.0"/>
      <point x="455.0" y="176.0"/>
      <point x="555.0" y="176.0" type="qcurve" smooth="yes"/>
      <point x="632.0" y="176.0"/>
      <point x="729.0" y="357.0"/>
      <point x="729.0" y="475.0" type="qcurve" smooth="yes"/>
      <point x="729.0" y="575.0" type="line" smooth="yes"/>
      <point x="729.0" y="693.0"/>
      <point x="632.0" y="874.0"/>
      <point x="555.0" y="874.0" type="qcurve" smooth="yes"/>
      <point x="455.0" y="874.0"/>
      <point x="376.0" y="680.0"/>
    </contour>
    <contour>
      <point x="1009.0" y="475.0" type="line" smooth="yes"/>
      <point x="1009.0" y="357.0"/>
      <point x="1106.0" y="176.0"/>
      <point x="1183.0" y="176.0" type="qcurve" smooth="yes"/>
      <point x="1283.0" y="176.0"/>
      <point x="1362.0" y="370.0"/>
      <point x="1362.0" y="525.0" type="qcurve" smooth="yes"/>
      <point x="1362.0" y="680.0"/>
      <point x="1283.0" y="874.0"/>
      <point x="1183.0" y="874.0" type="qcurve" smooth="yes"/>
      <point x="1106.0" y="874.0"/>
      <point x="1009.0" y="693.0"/>
      <point x="1009.0" y="575.0" type="qcurve" smooth="yes"/>
    </contour>
  </outline>
</glyph>
<glyph name="afii10088" format="2">
  <advance width="1240"/>
  <unicode hex="0446"/>
  <outline>
    <contour>
      <point x="196.0" y="0.0" type="line" smooth="yes"/>
      <point x="136.0" y="0.0"/>
      <point x="136.0" y="60.0" type="qcurve" smooth="yes"/>
      <point x="136.0" y="990.0" type="line" smooth="yes"/>
      <point x="136.0" y="1050.0"/>
      <point x="196.0" y="1050.0" type="qcurve" smooth="yes"/>
      <point x="356.0" y="1050.0" type="line" smooth="yes"/>
      <point x="416.0" y="1050.0"/>
      <point x="416.0" y="990.0" type="qcurve" smooth="yes"/>
      <point x="416.0" y="200.0" type="line"/>
      <point x="762.0" y="200.0" type="line"/>
      <point x="762.0" y="990.0" type="line" smooth="yes"/>
      <point x="762.0" y="1050.0"/>
      <point x="822.0" y="1050.0" type="qcurve" smooth="yes"/>
      <point x="982.0" y="1050.0" type="line" smooth="yes"/>
      <point x="1042.0" y="1050.0"/>
      <point x="1042.0" y="990.0" type="qcurve" smooth="yes"/>
      <point x="1042.0" y="200.0" type="line"/>
      <point x="1128.0" y="200.0" type="line" smooth="yes"/>
      <point x="1188.0" y="200.0"/>
      <point x="1188.0" y="140.0" type="qcurve" smooth="yes"/>
      <point x="1188.0" y="-250.0" type="line" smooth="yes"/>
      <point x="1188.0" y="-310.0"/>
      <point x="1133.0" y="-310.0" type="qcurve" smooth="yes"/>
      <point x="1013.0" y="-310.0" type="line" smooth="yes"/>
      <point x="958.0" y="-310.0"/>
      <point x="958.0" y="-250.0" type="qcurve" smooth="yes"/>
      <point x="958.0" y="0.0" type="line"/>
    </contour>
  </outline>
</glyph>
<glyph name="afii10091" format="2">
  <advance width="1836"/>
  <unicode hex="0449"/>
  <outline>
    <contour>
      <point x="196.0" y="0.0" type="line" smooth="yes"/>
      <point x="136.0" y="0.0"/>
      <point x="136.0" y="60.0" type="qcurve" smooth="yes"/>
      <point x="136.0" y="990.0" type="line" smooth="yes"/>
      <point x="136.0" y="1050.0"/>
      <point x="196.0" y="1050.0" type="qcurve" smooth="yes"/>
      <point x="356.0" y="1050.0" type="line" smooth="yes"/>
      <point x="416.0" y="1050.0"/>
      <point x="416.0" y="990.0" type="qcurve" smooth="yes"/>
      <point x="416.0" y="200.0" type="line"/>
      <point x="750.0" y="200.0" type="line"/>
      <point x="750.0" y="990.0" type="line" smooth="yes"/>
      <point x="750.0" y="1050.0"/>
      <point x="810.0" y="1050.0" type="qcurve" smooth="yes"/>
      <point x="970.0" y="1050.0" type="line" smooth="yes"/>
      <point x="1030.0" y="1050.0"/>
      <point x="1030.0" y="990.0" type="qcurve" smooth="yes"/>
      <point x="1030.0" y="200.0" type="line"/>
      <point x="1358.0" y="200.0" type="line"/>
      <point x="1358.0" y="990.0" type="line" smooth="yes"/>
      <point x="1358.0" y="1050.0"/>
      <point x="1418.0" y="1050.0" type="qcurve" smooth="yes"/>
      <point x="1578.0" y="1050.0" type="line" smooth="yes"/>
      <point x="1638.0" y="1050.0"/>
      <point x="1638.0" y="990.0" type="qcurve" smooth="yes"/>
      <point x="1638.0" y="200.0" type="line"/>
      <point x="1724.0" y="200.0" type="line" smooth="yes"/>
      <point x="1784.0" y="200.0"/>
      <point x="1784.0" y="140.0" type="qcurve" smooth="yes"/>
      <point x="1784.0" y="-250.0" type="line" smooth="yes"/>
      <point x="1784.0" y="-310.0"/>
      <point x="1729.0" y="-310.0" type="qcurve" smooth="yes"/>
      <point x="1609.0" y="-310.0" type="line" smooth="yes"/>
      <point x="1554.0" y="-310.0"/>
      <point x="1554.0" y="-250.0" type="qcurve" smooth="yes"/>
      <point x="1554.0" y="0.0" type="line"/>
    </contour>
  </outline>
</glyph>
<glyph name="afii10094" format="2">
  <advance width="1062"/>
  <unicode hex="044C"/>
  <outline>
    <contour>
      <point x="196.0" y="0.0" type="line" smooth="yes"/>
      <point x="136.0" y="0.0"/>
      <point x="136.0" y="60.0" type="qcurve" smooth="yes"/>
      <point x="136.0" y="990.0" type="line" smooth="yes"/>
      <point x="136.0" y="1050.0"/>
      <point x="196.0" y="1050.0" type="qcurve" smooth="yes"/>
      <point x="356.0" y="1050.0" type="line" smooth="yes"/>
      <point x="416.0" y="1050.0"/>
      <point x="416.0" y="990.0" type="qcurve" smooth="yes"/>
      <point x="416.0" y="648.0" type="line"/>
      <point x="603.0" y="648.0" type="line" smooth="yes"/>
      <point x="843.0" y="648.0"/>
      <point x="992.0" y="454.0"/>
      <point x="992.0" y="324.0" type="qcurve" smooth="yes"/>
      <point x="992.0" y="194.0"/>
      <point x="843.0" y="0.0"/>
      <point x="603.0" y="0.0" type="qcurve" smooth="yes"/>
    </contour>
    <contour>
      <point x="416.0" y="196.0" type="line"/>
      <point x="485.0" y="196.0" type="line" smooth="yes"/>
      <point x="605.0" y="196.0"/>
      <point x="696.0" y="254.0"/>
      <point x="696.0" y="324.0" type="qcurve" smooth="yes"/>
      <point x="696.0" y="394.0"/>
      <point x="605.0" y="452.0"/>
      <point x="485.0" y="452.0" type="qcurve" smooth="yes"/>
      <point x="416.0" y="452.0" type="line"/>
    </contour>
  </outline>
</glyph>
<glyph name="afii10096" format="2">
  <advance width="1698"/>
  <unicode hex="044E"/>
  <outline>
    <contour>
      <point x="196.0" y="0.0" type="line" smooth="yes"/>
      <point x="136.0" y="0.0"/>
      <point x="136.0" y="60.0" type="qcurve" smooth="yes"/>
      <point x="136.0" y="990.0" type="line" smooth="yes"/>
      <point x="136.0" y="1050.0"/>
      <point x="196.0" y="1050.0" type="qcurve" smooth="yes"/>
      <point x="356.0" y="1050.0" type="line" smooth="yes"/>
      <point x="416.0" y="1050.0"/>
      <point x="416.0" y="990.0" type="qcurve" smooth="yes"/>
      <point x="416.0" y="648.0" type="line"/>
      <point x="579.0" y="648.0" type="line"/>
      <point x="594.0" y="802.0"/>
      <point x="835.0" y="1070.0"/>
      <point x="1095.0" y="1070.0" type="qcurve" smooth="yes"/>
      <point x="1355.0" y="1070.0"/>
      <point x="1618.0" y="780.0"/>
      <point x="1618.0" y="525.0" type="qcurve" smooth="yes"/>
      <point x="1618.0" y="270.0"/>
      <point x="1355.0" y="-20.0"/>
      <point x="1095.0" y="-20.0" type="qcurve" smooth="yes"/>
      <point x="835.0" y="-20.0"/>
      <point x="591.0" y="246.0"/>
      <point x="576.0" y="448.0" type="qcurve"/>
      <point x="416.0" y="448.0" type="line"/>
      <point x="416.0" y="60.0" type="line" smooth="yes"/>
      <point x="416.0" y="0.0"/>
      <point x="356.0" y="0.0" type="qcurve" smooth="yes"/>
    </contour>
    <contour>
      <point x="868.0" y="525.0" type="qcurve" smooth="yes"/>
      <point x="868.0" y="335.0"/>
      <point x="985.0" y="176.0"/>
      <point x="1095.0" y="176.0" type="qcurve" smooth="yes"/>
      <point x="1205.0" y="176.0"/>
      <point x="1322.0" y="335.0"/>
      <point x="1322.0" y="525.0" type="qcurve" smooth="yes"/>
      <point x="1322.0" y="715.0"/>
      <point x="1205.0" y="874.0"/>
      <point x="1095.0" y="874.0" type="qcurve" smooth="yes"/>
      <point x="985.0" y="874.0"/>
      <point x="868.0" y="715.0"/>
    </contour>
  </outline>
</glyph>
<glyph name="afii10106" format="2">
  <advance width="1704"/>
  <unicode hex="0459"/>
  <outline>
    <contour>
      <point x="63.0" y="-8.0" type="qcurve" smooth="yes"/>
      <point x="32.0" y="5.0"/>
      <point x="38.0" y="33.0" type="qcurve" smooth="yes"/>
      <point x="63.0" y="158.0" type="line" smooth="yes"/>
      <point x="69.0" y="190.0"/>
      <point x="96.0" y="183.0" type="qcurve" smooth="yes"/>
      <point x="124.0" y="176.0"/>
      <point x="146.0" y="176.0" type="qcurve" smooth="yes"/>
      <point x="243.0" y="176.0"/>
      <point x="342.0" y="375.0"/>
      <point x="342.0" y="774.0" type="qcurve" smooth="yes"/>
      <point x="342.0" y="990.0" type="line" smooth="yes"/>
      <point x="342.0" y="1050.0"/>
      <point x="402.0" y="1050.0" type="qcurve" smooth="yes"/>
      <point x="998.0" y="1050.0" type="line" smooth="yes"/>
      <point x="1058.0" y="1050.0"/>
      <point x="1058.0" y="990.0" type="qcurve" smooth="yes"/>
      <point x="1058.0" y="648.0" type="line"/>
      <point x="1245.0" y="648.0" type="line" smooth="yes"/>
      <point x="1485.0" y="648.0"/>
      <point x="1634.0" y="454.0"/>
      <point x="1634.0" y="324.0" type="qcurve" smooth="yes"/>
      <point x="1634.0" y="194.0"/>
      <point x="1485.0" y="0.0"/>
      <point x="1245.0" y="0.0" type="qcurve" smooth="yes"/>
      <point x="838.0" y="0.0" type="line" smooth="yes"/>
      <point x="778.0" y="0.0"/>
      <point x="778.0" y="60.0" type="qcurve" smooth="yes"/>
      <point x="778.0" y="850.0" type="line"/>
      <point x="572.0" y="850.0" type="line"/>
      <point x="572.0" y="723.0" type="line" smooth="yes"/>
      <point x="572.0" y="321.0"/>
      <point x="408.0" y="-20.0"/>
      <point x="168.0" y="-20.0" type="qcurve" smooth="yes"/>
      <point x="92.0" y="-20.0"/>
    </contour>
    <contour>
      <point x="1058.0" y="196.0" type="line"/>
      <point x="1127.0" y="196.0" type="line" smooth="yes"/>
      <point x="1247.0" y="196.0"/>
      <point x="1338.0" y="254.0"/>
      <point x="1338.0" y="324.0" type="qcurve" smooth="yes"/>
      <point x="1338.0" y="394.0"/>
      <point x="1247.0" y="452.0"/>
      <point x="1127.0" y="452.0" type="qcurve" smooth="yes"/>
      <point x="1058.0" y="452.0" type="line"/>
    </contour>
  </outline>
</glyph>
<glyph name="afii10107" format="2">
  <advance width="1702"/>
  <unicode hex="045A"/>
  <outline>
    <contour>
      <point x="196.0" y="0.0" type="line" smooth="yes"/>
      <point x="136.0" y="0.0"/>
      <point x="136.0" y="60.0" type="qcurve" smooth="yes"/>
      <point x="136.0" y="990.0" type="line" smooth="yes"/>
      <point x="136.0" y="1050.0"/>
      <point x="196.0" y="1050.0" type="qcurve" smooth="yes"/>
      <point x="356.0" y="1050.0" type="line" smooth="yes"/>
      <point x="416.0" y="1050.0"/>
      <point x="416.0" y="990.0" type="qcurve" smooth="yes"/>
      <point x="416.0" y="648.0" type="line"/>
      <point x="776.0" y="648.0" type="line"/>
      <point x="776.0" y="990.0" type="line" smooth="yes"/>
      <point x="776.0" y="1050.0"/>
      <point x="836.0" y="1050.0" type="qcurve" smooth="yes"/>
      <point x="996.0" y="1050.0" type="line" smooth="yes"/>
      <point x="1056.0" y="1050.0"/>
      <point x="1056.0" y="990.0" type="qcurve" smooth="yes"/>
      <point x="1056.0" y="648.0" type="line"/>
      <point x="1243.0" y="648.0" type="line" smooth="yes"/>
      <point x="1483.0" y="648.0"/>
      <point x="1632.0" y="454.0"/>
      <point x="1632.0" y="324.0" type="qcurve" smooth="yes"/>
      <point x="1632.0" y="194.0"/>
      <point x="1483.0" y="0.0"/>
      <point x="1243.0" y="0.0" type="qcurve" smooth="yes"/>
      <point x="836.0" y="0.0" type="line" smooth="yes"/>
      <point x="776.0" y="0.0"/>
      <point x="776.0" y="60.0" type="qcurve" smooth="yes"/>
      <point x="776.0" y="448.0" type="line"/>
      <point x="416.0" y="448.0" type="line"/>
      <point x="416.0" y="60.0" type="line" smooth="yes"/>
      <point x="416.0" y="0.0"/>
      <point x="356.0" y="0.0" type="qcurve" smooth="yes"/>
    </contour>
    <contour>
      <point x="1056.0" y="196.0" type="line"/>
      <point x="1125.0" y="196.0" type="line" smooth="yes"/>
      <point x="1245.0" y="196.0"/>
      <point x="1336.0" y="254.0"/>
      <point x="1336.0" y="324.0" type="qcurve" smooth="yes"/>
      <point x="1336.0" y="394.0"/>
      <point x="1245.0" y="452.0"/>
      <point x="1125.0" y="452.0" type="qcurve" smooth="yes"/>
      <point x="1056.0" y="452.0" type="line"/>
    </contour>
  </outline>
</glyph>
<glyph name="afii10194" format="2">
  <advance width="1280"/>
  <unicode hex="0463"/>
  <outline>
    <contour>
      <point x="107.0" y="850.0" type="line" smooth="yes"/>
      <point x="47.0" y="850.0"/>
      <point x="47.0" y="900.0" type="qcurve" smooth="yes"/>
      <point x="47.0" y="1000.0" type="line" smooth="yes"/>
      <point x="47.0" y="1050.0"/>
      <point x="107.0" y="1050.0" type="qcurve" smooth="yes"/>
      <point x="354.0" y="1050.0" type="line"/>
      <point x="354.0" y="1416.0" type="line" smooth="yes"/>
      <point x="354.0" y="1476.0"/>
      <point x="414.0" y="1476.0" type="qcurve" smooth="yes"/>
      <point x="574.0" y="1476.0" type="line" smooth="yes"/>
      <point x="634.0" y="1476.0"/>
      <point x="634.0" y="1416.0" type="qcurve" smooth="yes"/>
      <point x="634.0" y="1050.0" type="line"/>
      <point x="881.0" y="1050.0" type="line" smooth="yes"/>
      <point x="941.0" y="1050.0"/>
      <point x="941.0" y="1000.0" type="qcurve" smooth="yes"/>
      <point x="941.0" y="900.0" type="line" smooth="yes"/>
      <point x="941.0" y="850.0"/>
      <point x="881.0" y="850.0" type="qcurve" smooth="yes"/>
      <point x="634.0" y="850.0" type="line"/>
      <point x="634.0" y="648.0" type="line"/>
      <point x="821.0" y="648.0" type="line" smooth="yes"/>
      <point x="1061.0" y="648.0"/>
      <point x="1210.0" y="454.0"/>
      <point x="1210.0" y="324.0" type="qcurve" smooth="yes"/>
      <point x="1210.0" y="194.0"/>
      <point x="1061.0" y="0.0"/>
      <point x="821.0" y="0.0" type="qcurve" smooth="yes"/>
      <point x="414.0" y="0.0" type="line" smooth="yes"/>
      <point x="354.0" y="0.0"/>
      <point x="354.0" y="60.0" type="qcurve" smooth="yes"/>
      <point x="354.0" y="850.0" type="line"/>
    </contour>
    <contour>
      <point x="634.0" y="196.0" type="line"/>
      <point x="703.0" y="196.0" type="line" smooth="yes"/>
      <point x="823.0" y="196.0"/>
      <point x="914.0" y="254.0"/>
      <point x="914.0" y="324.0" type="qcurve" smooth="yes"/>
      <point x="914.0" y="394.0"/>
      <point x="823.0" y="452.0"/>
      <point x="703.0" y="452.0" type="qcurve" smooth="yes"/>
      <point x="634.0" y="452.0" type="line"/>
    </contour>
  </outline>
</glyph>
<glyph name="uni046B" format="2">
  <advance width="1574"/>
  <unicode hex="046B"/>
  <outline>
    <contour>
      <point x="92.0" y="0.0" type="line" smooth="yes"/>
      <point x="19.0" y="0.0"/>
      <point x="61.0" y="74.0" type="qcurve" smooth="yes"/>
      <point x="230.0" y="372.0" type="line" smooth="yes"/>
      <point x="296.0" y="489.0"/>
      <point x="440.0" y="610.0"/>
      <point x="558.0" y="636.0" type="qcurve"/>
      <point x="558.0" y="638.0" type="line"/>
      <point x="278.0" y="976.0" type="line" smooth="yes"/>
      <point x="217.0" y="1050.0"/>
      <point x="302.0" y="1050.0" type="qcurve" smooth="yes"/>
      <point x="1272.0" y="1050.0" type="line" smooth="yes"/>
      <point x="1357.0" y="1050.0"/>
      <point x="1296.0" y="976.0" type="qcurve" smooth="yes"/>
      <point x="1016.0" y="638.0" type="line"/>
      <point x="1016.0" y="636.0" type="line"/>
      <point x="1134.0" y="610.0"/>
      <point x="1278.0" y="489.0"/>
      <point x="1344.0" y="372.0" type="qcurve" smooth="yes"/>
      <point x="1513.0" y="74.0" type="line" smooth="yes"/>
      <point x="1555.0" y="0.0"/>
      <point x="1482.0" y="0.0" type="qcurve" smooth="yes"/>
      <point x="1315.0" y="0.0" type="line" smooth="yes"/>
      <point x="1260.0" y="0.0"/>
      <point x="1233.0" y="52.0" type="qcurve" smooth="yes"/>
      <point x="1082.0" y="338.0" type="line" smooth="yes"/>
      <point x="1064.0" y="372.0"/>
      <point x="1001.0" y="448.0"/>
      <point x="944.0" y="448.0" type="qcurve" smooth="yes"/>
      <point x="927.0" y="448.0" type="line"/>
      <point x="927.0" y="60.0" type="line" smooth="yes"/>
      <point x="927.0" y="0.0"/>
      <point x="867.0" y="0.0" type="qcurve" smooth="yes"/>
      <point x="707.0" y="0.0" type="line" smooth="yes"/>
      <point x="647.0" y="0.0"/>
      <point x="647.0" y="60.0" type="qcurve" smooth="yes"/>
      <point x="647.0" y="448.0" type="line"/>
      <point x="630.0" y="448.0" type="line" smooth="yes"/>
      <point x="573.0" y="448.0"/>
      <point x="510.0" y="372.0"/>
      <point x="492.0" y="338.0" type="qcurve" smooth="yes"/>
      <point x="341.0" y="52.0" type="line" smooth="yes"/>
      <point x="314.0" y="0.0"/>
      <point x="259.0" y="0.0" type="qcurve" smooth="yes"/>
    </contour>
    <contour>
      <point x="656.0" y="850.0" type="line"/>
      <point x="786.0" y="691.0" type="line"/>
      <point x="788.0" y="691.0" type="line"/>
      <point x="918.0" y="850.0" type="line"/>
      <point x="918.0" y="855.0" type="line"/>
      <point x="868.0" y="850.0"/>
      <point x="838.0" y="850.0" type="qcurve" smooth="yes"/>
      <point x="736.0" y="850.0" type="line" smooth="yes"/>
      <point x="706.0" y="850.0"/>
      <point x="656.0" y="855.0" type="qcurve"/>
    </contour>
  </outline>
</glyph>
<glyph name="afii10148" format="2">
  <advance width="1474"/>
  <unicode hex="0474"/>
  <outline>
    <contour>
      <point x="43.0" y="1368.0" type="line" smooth="yes"/>
      <point x="18.0" y="1434.0"/>
      <point x="90.0" y="1434.0" type="qcurve" smooth="yes"/>
      <point x="249.0" y="1434.0" type="line" smooth="yes"/>
      <point x="316.0" y="1434.0"/>
      <point x="341.0" y="1365.0" type="qcurve" smooth="yes"/>
      <point x="647.0" y="530.0" type="line" smooth="yes"/>
      <point x="671.0" y="466.0"/>
      <point x="678.0" y="423.0"/>
      <point x="683.0" y="373.0" type="qcurve"/>
      <point x="687.0" y="373.0" type="line"/>
      <point x="692.0" y="423.0"/>
      <point x="700.0" y="466.0"/>
      <point x="723.0" y="530.0" type="qcurve" smooth="yes"/>
      <point x="896.0" y="999.0" type="line" smooth="yes"/>
      <point x="1009.0" y="1305.0"/>
      <point x="1192.0" y="1468.0"/>
      <point x="1379.0" y="1468.0" type="qcurve" smooth="yes"/>
      <point x="1434.0" y="1468.0"/>
      <point x="1512.0" y="1442.0" type="qcurve" smooth="yes"/>
      <point x="1568.0" y="1423.0"/>
      <point x="1557.0" y="1383.0" type="qcurve" smooth="yes"/>
      <point x="1521.0" y="1254.0" type="line" smooth="yes"/>
      <point x="1505.0" y="1195.0"/>
      <point x="1454.0" y="1220.0" type="qcurve" smooth="yes"/>
      <point x="1430.0" y="1232.0"/>
      <point x="1380.0" y="1232.0" type="qcurve" smooth="yes"/>
      <point x="1296.0" y="1232.0"/>
      <point x="1155.0" y="906.0"/>
      <point x="1095.0" y="744.0" type="qcurve" smooth="yes"/>
      <point x="849.0" y="81.0" type="line" smooth="yes"/>
      <point x="819.0" y="0.0"/>
      <point x="755.0" y="0.0" type="qcurve" smooth="yes"/>
      <point x="615.0" y="0.0" type="line" smooth="yes"/>
      <point x="551.0" y="0.0"/>
      <point x="521.0" y="81.0" type="qcurve" smooth="yes"/>
    </contour>
  </outline>
</glyph>
<glyph name="afii10196" format="2">
  <advance width="1104"/>
  <unicode hex="0475"/>
  <outline>
    <contour>
      <point x="42.0" y="972.0" type="line" smooth="yes"/>
      <point x="17.0" y="1050.0"/>
      <point x="75.0" y="1050.0" type="qcurve" smooth="yes"/>
      <point x="254.0" y="1050.0" type="line" smooth="yes"/>
      <point x="301.0" y="1050.0"/>
      <point x="314.0" y="999.0" type="qcurve" smooth="yes"/>
      <point x="469.0" y="413.0" type="line" smooth="yes"/>
      <point x="482.0" y="364.0"/>
      <point x="499.0" y="268.0"/>
      <point x="501.0" y="238.0" type="qcurve"/>
      <point x="507.0" y="238.0" type="line"/>
      <point x="509.0" y="268.0"/>
      <point x="526.0" y="366.0"/>
      <point x="539.0" y="413.0" type="qcurve" smooth="yes"/>
      <point x="606.0" y="662.0" type="line" smooth="yes"/>
      <point x="661.0" y="868.0"/>
      <point x="825.0" y="1070.0"/>
      <point x="966.0" y="1070.0" type="qcurve" smooth="yes"/>
      <point x="1041.0" y="1070.0"/>
      <point x="1110.0" y="1049.0" type="qcurve" smooth="yes"/>
      <point x="1156.0" y="1033.0"/>
      <point x="1141.0" y="986.0" type="qcurve" smooth="yes"/>
      <point x="1109.0" y="888.0" type="line" smooth="yes"/>
      <point x="1092.0" y="837.0"/>
      <point x="1067.0" y="859.0" type="qcurve" smooth="yes"/>
      <point x="1050.0" y="874.0"/>
      <point x="1008.0" y="874.0" type="qcurve" smooth="yes"/>
      <point x="948.0" y="874.0"/>
      <point x="850.0" y="623.0"/>
      <point x="820.0" y="528.0" type="qcurve" smooth="yes"/>
      <point x="676.0" y="67.0" type="line" smooth="yes"/>
      <point x="655.0" y="0.0"/>
      <point x="603.0" y="0.0" type="qcurve" smooth="yes"/>
      <point x="405.0" y="0.0" type="line" smooth="yes"/>
      <point x="353.0" y="0.0"/>
      <point x="332.0" y="67.0" type="qcurve" smooth="yes"/>
    </contour>
  </outline>
</glyph>
<glyph name="afii10050" format="2">
  <advance width="1100"/>
  <unicode hex="0490"/>
  <outline>
    <contour>
      <point x="230.0" y="0.0" type="line" smooth="yes"/>
      <point x="160.0" y="0.0"/>
      <point x="160.0" y="75.0" type="qcurve" smooth="yes"/>
      <point x="160.0" y="1359.0" type="line" smooth="yes"/>
      <point x="160.0" y="1434.0"/>
      <point x="230.0" y="1434.0" type="qcurve" smooth="yes"/>
      <point x="822.0" y="1434.0" type="line"/>
      <point x="822.0" y="1740.0" type="line" smooth="yes"/>
      <point x="822.0" y="1810.0"/>
      <point x="882.0" y="1810.0" type="qcurve" smooth="yes"/>
      <point x="1012.0" y="1810.0" type="line" smooth="yes"/>
      <point x="1072.0" y="1810.0"/>
      <point x="1072.0" y="1740.0" type="qcurve" smooth="yes"/>
      <point x="1072.0" y="1261.0" type="line" smooth="yes"/>
      <point x="1072.0" y="1186.0"/>
      <point x="1002.0" y="1186.0" type="qcurve" smooth="yes"/>
      <point x="452.0" y="1186.0" type="line"/>
      <point x="452.0" y="75.0" type="line" smooth="yes"/>
      <point x="452.0" y="0.0"/>
      <point x="382.0" y="0.0" type="qcurve" smooth="yes"/>
    </contour>
  </outline>
</glyph>
<glyph name="afii10098" format="2">
  <advance width="910"/>
  <unicode hex="0491"/>
  <outline>
    <contour>
      <point x="196.0" y="0.0" type="line" smooth="yes"/>
      <point x="136.0" y="0.0"/>
      <point x="136.0" y="60.0" type="qcurve" smooth="yes"/>
      <point x="136.0" y="990.0" type="line" smooth="yes"/>
      <point x="136.0" y="1050.0"/>
      <point x="196.0" y="1050.0" type="qcurve" smooth="yes"/>
      <point x="658.0" y="1050.0" type="line"/>
      <point x="658.0" y="1306.0" type="line" smooth="yes"/>
      <point x="658.0" y="1366.0"/>
      <point x="713.0" y="1366.0" type="qcurve" smooth="yes"/>
      <point x="833.0" y="1366.0" type="line" smooth="yes"/>
      <point x="888.0" y="1366.0"/>
      <point x="888.0" y="1306.0" type="qcurve" smooth="yes"/>
      <point x="888.0" y="910.0" type="line" smooth="yes"/>
      <point x="888.0" y="850.0"/>
      <point x="828.0" y="850.0" type="qcurve" smooth="yes"/>
      <point x="416.0" y="850.0" type="line"/>
      <point x="416.0" y="60.0" type="line" smooth="yes"/>
      <point x="416.0" y="0.0"/>
      <point x="356.0" y="0.0" type="qcurve" smooth="yes"/>
    </contour>
  </outline>
</glyph>
<glyph name="uni04A0" format="2">
  <advance width="1708"/>
  <unicode hex="04A0"/>
  <outline>
    <contour>
      <point x="109.0" y="1186.0" type="line" smooth="yes"/>
      <point x="34.0" y="1186.0"/>
      <point x="34.0" y="1251.0" type="qcurve" smooth="yes"/>
      <point x="34.0" y="1369.0" type="line" smooth="yes"/>
      <point x="34.0" y="1434.0"/>
      <point x="109.0" y="1434.0" type="qcurve" smooth="yes"/>
      <point x="742.0" y="1434.0" type="line" smooth="yes"/>
      <point x="812.0" y="1434.0"/>
      <point x="812.0" y="1359.0" type="qcurve" smooth="yes"/>
      <point x="812.0" y="855.0" type="line"/>
      <point x="842.0" y="855.0" type="line" smooth="yes"/>
      <point x="909.0" y="855.0"/>
      <point x="1051.0" y="967.0"/>
      <point x="1104.0" y="1050.0" type="qcurve" smooth="yes"/>
      <point x="1314.0" y="1375.0" type="line" smooth="yes"/>
      <point x="1352.0" y="1434.0"/>
      <point x="1404.0" y="1434.0" type="qcurve" smooth="yes"/>
      <point x="1581.0" y="1434.0" type="line" smooth="yes"/>
      <point x="1678.0" y="1434.0"/>
      <point x="1619.0" y="1348.0" type="qcurve" smooth="yes"/>
      <point x="1350.0" y="954.0" type="line" smooth="yes"/>
      <point x="1300.0" y="881.0"/>
      <point x="1203.0" y="783.0"/>
      <point x="1130.0" y="735.0" type="qcurve"/>
      <point x="1130.0" y="734.0" type="line"/>
      <point x="1206.0" y="705.0"/>
      <point x="1330.0" y="598.0"/>
      <point x="1404.0" y="480.0" type="qcurve" smooth="yes"/>
      <point x="1650.0" y="86.0" type="line" smooth="yes"/>
      <point x="1704.0" y="0.0"/>
      <point x="1612.0" y="0.0" type="qcurve" smooth="yes"/>
      <point x="1425.0" y="0.0" type="line" smooth="yes"/>
      <point x="1369.0" y="0.0"/>
      <point x="1335.0" y="59.0" type="qcurve" smooth="yes"/>
      <point x="1146.0" y="384.0" type="line" smooth="yes"/>
      <point x="1093.0" y="476.0"/>
      <point x="930.0" y="611.0"/>
      <point x="857.0" y="611.0" type="qcurve" smooth="yes"/>
      <point x="812.0" y="611.0" type="line"/>
      <point x="812.0" y="75.0" type="line" smooth="yes"/>
      <point x="812.0" y="0.0"/>
      <point x="742.0" y="0.0" type="qcurve" smooth="yes"/>
      <point x="590.0" y="0.0" type="line" smooth="yes"/>
      <point x="520.0" y="0.0"/>
      <point x="520.0" y="75.0" type="qcurve" smooth="yes"/>
      <point x="520.0" y="1186.0" type="line"/>
    </contour>
  </outline>
</glyph>
<glyph name="uni04A3" format="2">
  <advance width="1254"/>
  <unicode hex="04A3"/>
  <outline>
    <contour>
      <point x="196.0" y="0.0" type="line" smooth="yes"/>
      <point x="136.0" y="0.0"/>
      <point x="136.0" y="60.0" type="qcurve" smooth="yes"/>
      <point x="136.0" y="990.0" type="line" smooth="yes"/>
      <point x="136.0" y="1050.0"/>
      <point x="196.0" y="1050.0" type="qcurve" smooth="yes"/>
      <point x="356.0" y="1050.0" type="line" smooth="yes"/>
      <point x="416.0" y="1050.0"/>
      <point x="416.0" y="990.0" type="qcurve" smooth="yes"/>
      <point x="416.0" y="648.0" type="line"/>
      <point x="776.0" y="648.0" type="line"/>
      <point x="776.0" y="990.0" type="line" smooth="yes"/>
      <point x="776.0" y="1050.0"/>
      <point x="836.0" y="1050.0" type="qcurve" smooth="yes"/>
      <point x="996.0" y="1050.0" type="line" smooth="yes"/>
      <point x="1056.0" y="1050.0"/>
      <point x="1056.0" y="990.0" type="qcurve" smooth="yes"/>
      <point x="1056.0" y="200.0" type="line"/>
      <point x="1142.0" y="200.0" type="line" smooth="yes"/>
      <point x="1202.0" y="200.0"/>
      <point x="1202.0" y="140.0" type="qcurve" smooth="yes"/>
      <point x="1202.0" y="-250.0" type="line" smooth="yes"/>
      <point x="1202.0" y="-310.0"/>
      <point x="1147.0" y="-310.0" type="qcurve" smooth="yes"/>
      <point x="1027.0" y="-310.0" type="line" smooth="yes"/>
      <point x="972.0" y="-310.0"/>
      <point x="972.0" y="-250.0" type="qcurve" smooth="yes"/>
      <point x="972.0" y="0.0" type="line"/>
      <point x="836.0" y="0.0" type="line" smooth="yes"/>
      <point x="776.0" y="0.0"/>
      <point x="776.0" y="60.0" type="qcurve" smooth="yes"/>
      <point x="776.0" y="448.0" type="line"/>
      <point x="416.0" y="448.0" type="line"/>
      <point x="416.0" y="60.0" type="line" smooth="yes"/>
      <point x="416.0" y="0.0"/>
      <point x="356.0" y="0.0" type="qcurve" smooth="yes"/>
    </contour>
  </outline>
</glyph>
<glyph name="uni04C3" format="2">
  <advance width="1376"/>
  <unicode hex="04C3"/>
  <outline>
    <contour>
      <point x="230.0" y="0.0" type="line" smooth="yes"/>
      <point x="160.0" y="0.0"/>
      <point x="160.0" y="75.0" type="qcurve" smooth="yes"/>
      <point x="160.0" y="1359.0" type="line" smooth="yes"/>
      <point x="160.0" y="1434.0"/>
      <point x="230.0" y="1434.0" type="qcurve" smooth="yes"/>
      <point x="382.0" y="1434.0" type="line" smooth="yes"/>
      <point x="452.0" y="1434.0"/>
      <point x="452.0" y="1359.0" type="qcurve" smooth="yes"/>
      <point x="452.0" y="855.0" type="line"/>
      <point x="482.0" y="855.0" type="line" smooth="yes"/>
      <point x="549.0" y="855.0"/>
      <point x="690.0" y="966.0"/>
      <point x="744.0" y="1050.0" type="qcurve" smooth="yes"/>
      <point x="954.0" y="1375.0" type="line" smooth="yes"/>
      <point x="992.0" y="1434.0"/>
      <point x="1044.0" y="1434.0" type="qcurve" smooth="yes"/>
      <point x="1221.0" y="1434.0" type="line" smooth="yes"/>
      <point x="1318.0" y="1434.0"/>
      <point x="1259.0" y="1348.0" type="qcurve" smooth="yes"/>
      <point x="990.0" y="954.0" type="line" smooth="yes"/>
      <point x="966.0" y="918.0"/>
      <point x="891.0" y="825.0"/>
      <point x="825.0" y="780.0" type="qcurve"/>
      <point x="825.0" y="779.0" type="line"/>
      <point x="1065.0" y="741.0"/>
      <point x="1276.0" y="405.0"/>
      <point x="1276.0" y="202.0" type="qcurve" smooth="yes"/>
      <point x="1276.0" y="-102.0"/>
      <point x="966.0" y="-404.0"/>
      <point x="704.0" y="-404.0" type="qcurve" smooth="yes"/>
      <point x="616.0" y="-404.0"/>
      <point x="528.0" y="-383.0" type="qcurve" smooth="yes"/>
      <point x="465.0" y="-367.0"/>
      <point x="479.0" y="-317.0" type="qcurve" smooth="yes"/>
      <point x="519.0" y="-178.0" type="line" smooth="yes"/>
      <point x="534.0" y="-125.0"/>
      <point x="584.0" y="-149.0" type="qcurve" smooth="yes"/>
      <point x="624.0" y="-168.0"/>
      <point x="693.0" y="-168.0" type="qcurve" smooth="yes"/>
      <point x="813.0" y="-168.0"/>
      <point x="964.0" y="0.0"/>
      <point x="964.0" y="182.0" type="qcurve" smooth="yes"/>
      <point x="964.0" y="402.0"/>
      <point x="696.0" y="611.0"/>
      <point x="497.0" y="611.0" type="qcurve" smooth="yes"/>
      <point x="452.0" y="611.0" type="line"/>
      <point x="452.0" y="75.0" type="line" smooth="yes"/>
      <point x="452.0" y="0.0"/>
      <point x="382.0" y="0.0" type="qcurve" smooth="yes"/>
    </contour>
  </outline>
</glyph>
<glyph name="uni04C8" format="2">
  <advance width="1192"/>
  <unicode hex="04C8"/>
  <outline>
    <contour>
      <point x="196.0" y="0.0" type="line" smooth="yes"/>
      <point x="136.0" y="0.0"/>
      <point x="136.0" y="60.0" type="qcurve" smooth="yes"/>
      <point x="136.0" y="990.0" type="line" smooth="yes"/>
      <point x="136.0" y="1050.0"/>
      <point x="196.0" y="1050.0" type="qcurve" smooth="yes"/>
      <point x="356.0" y="1050.0" type="line" smooth="yes"/>
      <point x="416.0" y="1050.0"/>
      <point x="416.0" y="990.0" type="qcurve" smooth="yes"/>
      <point x="416.0" y="648.0" type="line"/>
      <point x="776.0" y="648.0" type="line"/>
      <point x="776.0" y="990.0" type="line" smooth="yes"/>
      <point x="776.0" y="1050.0"/>
      <point x="836.0" y="1050.0" type="qcurve" smooth="yes"/>
      <point x="996.0" y="1050.0" type="line" smooth="yes"/>
      <point x="1056.0" y="1050.0"/>
      <point x="1056.0" y="990.0" type="qcurve" smooth="yes"/>
      <point x="1056.0" y="-4.0" type="line" smooth="yes"/>
      <point x="1056.0" y="-252.0"/>
      <point x="862.0" y="-420.0"/>
      <point x="700.0" y="-420.0" type="qcurve" smooth="yes"/>
      <point x="610.0" y="-420.0"/>
      <point x="549.0" y="-409.0" type="qcurve" smooth="yes"/>
      <point x="511.0" y="-402.0"/>
      <point x="520.0" y="-357.0" type="qcurve" smooth="yes"/>
      <point x="542.0" y="-247.0" type="line" smooth="yes"/>
      <point x="551.0" y="-201.0"/>
      <point x="593.0" y="-217.0" type="qcurve" smooth="yes"/>
      <point x="611.0" y="-224.0"/>
      <point x="665.0" y="-224.0" type="qcurve" smooth="yes"/>
      <point x="728.0" y="-224.0"/>
      <point x="776.0" y="-92.0"/>
      <point x="776.0" y="26.0" type="qcurve" smooth="yes"/>
      <point x="776.0" y="448.0" type="line"/>
      <point x="416.0" y="448.0" type="line"/>
      <point x="416.0" y="60.0" type="line" smooth="yes"/>
      <point x="416.0" y="0.0"/>
      <point x="356.0" y="0.0" type="qcurve" smooth="yes"/>
    </contour>
  </outline>
</glyph>
<glyph name="uni04E0" format="2">
  <advance width="1316"/>
  <unicode hex="04E0"/>
  <outline>
    <contour>
      <point x="115.0" y="158.0" type="qcurve" smooth="yes"/>
      <point x="67.0" y="219.0"/>
      <point x="116.0" y="262.0" type="qcurve" smooth="yes"/>
      <point x="217.0" y="351.0" type="line" smooth="yes"/>
      <point x="266.0" y="394.0"/>
      <point x="317.0" y="329.0" type="qcurve" smooth="yes"/>
      <point x="368.0" y="264.0"/>
      <point x="515.0" y="202.0"/>
      <point x="622.0" y="202.0" type="qcurve" smooth="yes"/>
      <point x="723.0" y="202.0"/>
      <point x="899.0" y="311.0"/>
      <point x="899.0" y="428.0" type="qcurve" smooth="yes"/>
      <point x="899.0" y="522.0"/>
      <point x="758.0" y="627.0"/>
      <point x="630.0" y="627.0" type="qcurve" smooth="yes"/>
      <point x="524.0" y="627.0" type="line" smooth="yes"/>
      <point x="449.0" y="627.0"/>
      <point x="449.0" y="690.0" type="qcurve" smooth="yes"/>
      <point x="449.0" y="796.0" type="line" smooth="yes"/>
      <point x="449.0" y="829.0"/>
      <point x="481.0" y="868.0" type="qcurve" smooth="yes"/>
      <point x="739.0" y="1184.0" type="line"/>
      <point x="739.0" y="1191.0" type="line"/>
      <point x="679.0" y="1186.0"/>
      <point x="619.0" y="1186.0" type="qcurve" smooth="yes"/>
      <point x="193.0" y="1186.0" type="line" smooth="yes"/>
      <point x="118.0" y="1186.0"/>
      <point x="118.0" y="1251.0" type="qcurve" smooth="yes"/>
      <point x="118.0" y="1369.0" type="line" smooth="yes"/>
      <point x="118.0" y="1434.0"/>
      <point x="193.0" y="1434.0" type="qcurve" smooth="yes"/>
      <point x="1076.0" y="1434.0" type="line" smooth="yes"/>
      <point x="1151.0" y="1434.0"/>
      <point x="1151.0" y="1369.0" type="qcurve" smooth="yes"/>
      <point x="1151.0" y="1294.0" type="line" smooth="yes"/>
      <point x="1151.0" y="1237.0"/>
      <point x="1116.0" y="1193.0" type="qcurve" smooth="yes"/>
      <point x="825.0" y="829.0" type="line"/>
      <point x="825.0" y="825.0" type="line"/>
      <point x="986.0" y="825.0"/>
      <point x="1211.0" y="600.0"/>
      <point x="1211.0" y="422.0" type="qcurve" smooth="yes"/>
      <point x="1211.0" y="207.0"/>
      <point x="908.0" y="-34.0"/>
      <point x="617.0" y="-34.0" type="qcurve" smooth="yes"/>
      <point x="410.0" y="-34.0"/>
      <point x="188.0" y="66.0"/>
    </contour>
  </outline>
</glyph>
<glyph name="uni1E9E" format="2">
  <advance width="1408"/>
  <unicode hex="1E9E"/>
  <outline>
    <contour>
      <point x="230.0" y="0.0" type="line" smooth="yes"/>
      <point x="160.0" y="0.0"/>
      <point x="160.0" y="75.0" type="qcurve" smooth="yes"/>
      <point x="160.0" y="809.0" type="line" smooth="yes"/>
      <point x="160.0" y="1173.0"/>
      <point x="520.0" y="1468.0"/>
      <point x="790.0" y="1468.0" type="qcurve" smooth="yes"/>
      <point x="952.0" y="1468.0"/>
      <point x="1160.0" y="1355.0"/>
      <point x="1206.0" y="1292.0" type="qcurve" smooth="yes"/>
      <point x="1233.0" y="1255.0"/>
      <point x="1233.0" y="1224.0" type="qcurve" smooth="yes"/>
      <point x="1233.0" y="1185.0"/>
      <point x="1208.0" y="1148.0" type="qcurve" smooth="yes"/>
      <point x="982.0" y="814.0" type="line"/>
      <point x="982.0" y="811.0" type="line"/>
      <point x="1161.0" y="765.0"/>
      <point x="1304.0" y="537.0"/>
      <point x="1304.0" y="396.0" type="qcurve" smooth="yes"/>
      <point x="1304.0" y="190.0"/>
      <point x="1047.0" y="-34.0"/>
      <point x="854.0" y="-34.0" type="qcurve" smooth="yes"/>
      <point x="774.0" y="-34.0"/>
      <point x="640.0" y="-10.0"/>
      <point x="578.0" y="24.0" type="qcurve" smooth="yes"/>
      <point x="540.0" y="45.0"/>
      <point x="556.0" y="88.0" type="qcurve" smooth="yes"/>
      <point x="610.0" y="235.0" type="line" smooth="yes"/>
      <point x="628.0" y="283.0"/>
      <point x="688.0" y="241.0" type="qcurve" smooth="yes"/>
      <point x="708.0" y="227.0"/>
      <point x="782.0" y="202.0"/>
      <point x="835.0" y="202.0" type="qcurve" smooth="yes"/>
      <point x="900.0" y="202.0"/>
      <point x="1002.0" y="285.0"/>
      <point x="1002.0" y="392.0" type="qcurve" smooth="yes"/>
      <point x="1002.0" y="492.0"/>
      <point x="894.0" y="630.0"/>
      <point x="750.0" y="643.0" type="qcurve" smooth="yes"/>
      <point x="700.0" y="648.0"/>
      <point x="681.0" y="688.0" type="qcurve" smooth="yes"/>
      <point x="659.0" y="732.0" type="line" smooth="yes"/>
      <point x="637.0" y="776.0"/>
      <point x="668.0" y="822.0" type="qcurve" smooth="yes"/>
      <point x="893.0" y="1160.0" type="line"/>
      <point x="893.0" y="1163.0" type="line"/>
      <point x="876.0" y="1194.0"/>
      <point x="816.0" y="1232.0"/>
      <point x="780.0" y="1232.0" type="qcurve" smooth="yes"/>
      <point x="658.0" y="1232.0"/>
      <point x="452.0" y="1089.0"/>
      <point x="452.0" y="872.0" type="qcurve" smooth="yes"/>
      <point x="452.0" y="75.0" type="line" smooth="yes"/>
      <point x="452.0" y="0.0"/>
      <point x="382.0" y="0.0" type="qcurve" smooth="yes"/>
    </contour>
  </outline>
</glyph>
<glyph name="dagger" format="2">
  <advance width="1060"/>
  <unicode hex="2020"/>
  <outline>
    <contour>
      <point x="120.0" y="850.0" type="line" smooth="yes"/>
      <point x="65.0" y="850.0"/>
      <point x="65.0" y="905.0" type="qcurve" smooth="yes"/>
      <point x="65.0" y="971.0" type="line" smooth="yes"/>
      <point x="65.0" y="1026.0"/>
      <point x="120.0" y="1026.0" type="qcurve" smooth="yes"/>
      <point x="390.0" y="1026.0" type="line"/>
      <point x="455.0" y="1006.0" type="line"/>
      <point x="435.0" y="1071.0" type="line"/>
      <point x="435.0" y="1329.0" type="line" smooth="yes"/>
      <point x="435.0" y="1384.0"/>
      <point x="480.0" y="1384.0" type="qcurve" smooth="yes"/>
      <point x="580.0" y="1384.0" type="line" smooth="yes"/>
      <point x="625.0" y="1384.0"/>
      <point x="625.0" y="1329.0" type="qcurve" smooth="yes"/>
      <point x="625.0" y="1071.0" type="line"/>
      <point x="605.0" y="1006.0" type="line"/>
      <point x="670.0" y="1026.0" type="line"/>
      <point x="940.0" y="1026.0" type="line" smooth="yes"/>
      <point x="995.0" y="1026.0"/>
      <point x="995.0" y="971.0" type="qcurve" smooth="yes"/>
      <point x="995.0" y="905.0" type="line" smooth="yes"/>
      <point x="995.0" y="850.0"/>
      <point x="940.0" y="850.0" type="qcurve" smooth="yes"/>
      <point x="670.0" y="850.0" type="line"/>
      <point x="605.0" y="870.0" type="line"/>
      <point x="625.0" y="804.0" type="line"/>
      <point x="625.0" y="110.0" type="line"/>
      <point x="601.0" y="-255.0" type="line" smooth="yes"/>
      <point x="597.0" y="-310.0"/>
      <point x="551.0" y="-310.0" type="qcurve" smooth="yes"/>
      <point x="509.0" y="-310.0" type="line" smooth="yes"/>
      <point x="463.0" y="-310.0"/>
      <point x="459.0" y="-255.0" type="qcurve" smooth="yes"/>
      <point x="435.0" y="110.0" type="line"/>
      <point x="435.0" y="804.0" type="line"/>
      <point x="455.0" y="870.0" type="line"/>
      <point x="390.0" y="850.0" type="line"/>
    </contour>
  </outline>
</glyph>
<glyph name="uni2023" format="2">
  <advance width="1024"/>
  <unicode hex="2023"/>
  <outline>
    <contour>
      <point x="311.0" y="415.0" type="line" smooth="yes"/>
      <point x="263.0" y="390.0"/>
      <point x="262.0" y="444.0" type="qcurve" smooth="yes"/>
      <point x="262.0" y="944.0" type="line" smooth="yes"/>
      <point x="262.0" y="999.0"/>
      <point x="311.0" y="973.0" type="qcurve" smooth="yes"/>
      <point x="787.0" y="720.0" type="line" smooth="yes"/>
      <point x="835.0" y="695.0"/>
      <point x="787.0" y="668.0" type="qcurve" smooth="yes"/>
    </contour>
  </outline>
</glyph>
<glyph name="guilsinglright" format="2">
  <advance width="706"/>
  <unicode hex="203A"/>
  <outline>
    <contour>
      <point x="129.0" y="178.0" type="line" smooth="yes"/>
      <point x="102.0" y="200.0"/>
      <point x="133.0" y="238.0" type="qcurve" smooth="yes"/>
      <point x="380.0" y="543.0" type="line"/>
      <point x="133.0" y="848.0" type="line" smooth="yes"/>
      <point x="102.0" y="886.0"/>
      <point x="129.0" y="908.0" type="qcurve" smooth="yes"/>
      <point x="217.0" y="978.0" type="line" smooth="yes"/>
      <point x="249.0" y="1003.0"/>
      <point x="277.0" y="968.0" type="qcurve" smooth="yes"/>
      <point x="585.0" y="582.0" type="line" smooth="yes"/>
      <point x="616.0" y="543.0"/>
      <point x="585.0" y="504.0" type="qcurve" smooth="yes"/>
      <point x="277.0" y="118.0" type="line" smooth="yes"/>
      <point x="249.0" y="83.0"/>
      <point x="217.0" y="108.0" type="qcurve" smooth="yes"/>
    </contour>
  </outline>
</glyph>
<glyph name="uni2215" format="2">
  <advance width="912"/>
  <unicode hex="2215"/>
  <outline>
    <contour>
      <point x="-124.0" y="-29.0" type="line" smooth="yes"/>
      <point x="-165.0" y="0.0"/>
      <point x="-131.0" y="49.0" type="qcurve" smooth="yes"/>
      <point x="890.0" y="1507.0" type="line" smooth="yes"/>
      <point x="925.0" y="1557.0"/>
      <point x="966.0" y="1528.0" type="qcurve" smooth="yes"/>
      <point x="1036.0" y="1479.0" type="line" smooth="yes"/>
      <point x="1077.0" y="1450.0"/>
      <point x="1043.0" y="1401.0" type="qcurve" smooth="yes"/>
      <point x="22.0" y="-57.0" type="line" smooth="yes"/>
      <point x="-13.0" y="-107.0"/>
      <point x="-54.0" y="-78.0" type="qcurve" smooth="yes"/>
    </contour>
  </outline>
</glyph>
<glyph name="lessequal" format="2">
  <advance width="1280"/>
  <unicode hex="2264"/>
  <outline>
    <contour>
      <point x="135.0" y="72.0" type="line" smooth="yes"/>
      <point x="75.0" y="72.0"/>
      <point x="75.0" y="122.0" type="qcurve" smooth="yes"/>
      <point x="75.0" y="208.0" type="line" smooth="yes"/>
      <point x="75.0" y="258.0"/>
      <point x="135.0" y="258.0" type="qcurve" smooth="yes"/>
      <point x="1145.0" y="258.0" type="line" smooth="yes"/>
      <point x="1205.0" y="258.0"/>
      <point x="1205.0" y="208.0" type="qcurve" smooth="yes"/>
      <point x="1205.0" y="122.0" type="line" smooth="yes"/>
      <point x="1205.0" y="72.0"/>
      <point x="1145.0" y="72.0" type="qcurve" smooth="yes"/>
    </contour>
    <contour>
      <point x="118.0" y="782.0" type="line" smooth="yes"/>
      <point x="78.0" y="797.0"/>
      <point x="78.0" y="850.0" type="qcurve" smooth="yes"/>
      <point x="78.0" y="913.0" type="line" smooth="yes"/>
      <point x="78.0" y="966.0"/>
      <point x="118.0" y="981.0" type="qcurve" smooth="yes"/>
      <point x="1099.0" y="1338.0" type="line" smooth="yes"/>
      <point x="1154.0" y="1358.0"/>
      <point x="1172.0" y="1311.0" type="qcurve" smooth="yes"/>
      <point x="1202.0" y="1231.0" type="line" smooth="yes"/>
      <point x="1220.0" y="1184.0"/>
      <point x="1162.0" y="1163.0" type="qcurve" smooth="yes"/>
      <point x="389.0" y="882.0" type="line"/>
      <point x="389.0" y="881.0" type="line"/>
      <point x="1162.0" y="600.0" type="line" smooth="yes"/>
      <point x="1220.0" y="579.0"/>
      <point x="1202.0" y="532.0" type="qcurve" smooth="yes"/>
      <point x="1172.0" y="452.0" type="line" smooth="yes"/>
      <point x="1154.0" y="405.0"/>
      <point x="1099.0" y="425.0" type="qcurve" smooth="yes"/>
    </contour>
  </outline>
</glyph>
<glyph name="uni2A7D" format="2">
  <advance width="1280"/>
  <unicode hex="2A7D"/>
  <outline>
    <contour>
      <point x="118.0" y="782.0" type="line" smooth="yes"/>
      <point x="78.0" y="797.0"/>
      <point x="78.0" y="850.0" type="qcurve" smooth="yes"/>
      <point x="78.0" y="913.0" type="line" smooth="yes"/>
      <point x="78.0" y="966.0"/>
      <point x="118.0" y="981.0" type="qcurve" smooth="yes"/>
      <point x="1099.0" y="1338.0" type="line" smooth="yes"/>
      <point x="1154.0" y="1358.0"/>
      <point x="1172.0" y="1311.0" type="qcurve" smooth="yes"/>
      <point x="1202.0" y="1231.0" type="line" smooth="yes"/>
      <point x="1220.0" y="1184.0"/>
      <point x="1162.0" y="1163.0" type="qcurve" smooth="yes"/>
      <point x="389.0" y="882.0" type="line"/>
      <point x="389.0" y="881.0" type="line"/>
      <point x="1162.0" y="600.0" type="line" smooth="yes"/>
      <point x="1220.0" y="579.0"/>
      <point x="1202.0" y="532.0" type="qcurve" smooth="yes"/>
      <point x="1172.0" y="452.0" type="line" smooth="yes"/>
      <point x="1154.0" y="405.0"/>
      <point x="1099.0" y="425.0" type="qcurve" smooth="yes"/>
    </contour>
    <contour>
      <point x="118.0" y="352.0" type="line" smooth="yes"/>
      <point x="62.0" y="373.0"/>
      <point x="78.0" y="420.0" type="qcurve" smooth="yes"/>
      <point x="108.0" y="500.0" type="line" smooth="yes"/>
      <point x="125.0" y="547.0"/>
      <point x="181.0" y="527.0" type="qcurve" smooth="yes"/>
      <point x="1162.0" y="170.0" type="line" smooth="yes"/>
      <point x="1218.0" y="149.0"/>
      <point x="1202.0" y="102.0" type="qcurve" smooth="yes"/>
      <point x="1172.0" y="22.0" type="line" smooth="yes"/>
      <point x="1155.0" y="-25.0"/>
      <point x="1099.0" y="-5.0" type="qcurve" smooth="yes"/>
    </contour>
  </outline>
</glyph>
<glyph name="tilde.cap" format="2">
  <advance width="820"/>
  <unicode hex="EFF5"/>
  <outline>
    <contour>
      <point x="31.0" y="1583.0" type="line" smooth="yes"/>
      <point x="-3.0" y="1604.0"/>
      <point x="23.0" y="1647.0" type="qcurve" smooth="yes"/>
      <point x="60.0" y="1708.0"/>
      <point x="170.0" y="1785.0"/>
      <point x="268.0" y="1785.0" type="qcurve" smooth="yes"/>
      <point x="338.0" y="1785.0"/>
      <point x="526.0" y="1693.0"/>
      <point x="565.0" y="1693.0" type="qcurve" smooth="yes"/>
      <point x="600.0" y="1693.0"/>
      <point x="665.0" y="1727.0"/>
      <point x="681.0" y="1752.0" type="qcurve" smooth="yes"/>
      <point x="708.0" y="1794.0"/>
      <point x="741.0" y="1774.0" type="qcurve" smooth="yes"/>
      <point x="789.0" y="1745.0" type="line" smooth="yes"/>
      <point x="823.0" y="1724.0"/>
      <point x="797.0" y="1681.0" type="qcurve" smooth="yes"/>
      <point x="760.0" y="1620.0"/>
      <point x="650.0" y="1543.0"/>
      <point x="552.0" y="1543.0" type="qcurve" smooth="yes"/>
      <point x="478.0" y="1543.0"/>
      <point x="298.0" y="1635.0"/>
      <point x="255.0" y="1635.0" type="qcurve" smooth="yes"/>
      <point x="220.0" y="1635.0"/>
      <point x="155.0" y="1601.0"/>
      <point x="139.0" y="1576.0" type="qcurve" smooth="yes"/>
      <point x="112.0" y="1534.0"/>
      <point x="79.0" y="1554.0" type="qcurve" smooth="yes"/>
    </contour>
  </outline>
</glyph>
<glyph name="five.oldstyle.tab" format="2">
  <advance width="1200"/>
  <unicode hex="F648"/>
  <outline>
    <contour>
      <point x="108.0" y="-173.0" type="qcurve" smooth="yes"/>
      <point x="70.0" y="-143.0"/>
      <point x="99.0" y="-97.0" type="qcurve" smooth="yes"/>
      <point x="162.0" y="5.0" type="line" smooth="yes"/>
      <point x="191.0" y="52.0"/>
      <point x="264.0" y="8.0" type="qcurve" smooth="yes"/>
      <point x="312.0" y="-21.0"/>
      <point x="472.0" y="-70.0"/>
      <point x="547.0" y="-70.0" type="qcurve" smooth="yes"/>
      <point x="632.0" y="-70.0"/>
      <point x="792.0" y="27.0"/>
      <point x="792.0" y="161.0" type="qcurve" smooth="yes"/>
      <point x="792.0" y="276.0"/>
      <point x="690.0" y="390.0"/>
      <point x="605.0" y="390.0" type="qcurve" smooth="yes"/>
      <point x="548.0" y="390.0"/>
      <point x="462.0" y="375.0"/>
      <point x="426.0" y="351.0" type="qcurve" smooth="yes"/>
      <point x="357.0" y="305.0"/>
      <point x="315.0" y="305.0" type="qcurve" smooth="yes"/>
      <point x="206.0" y="305.0" type="line" smooth="yes"/>
      <point x="141.0" y="305.0"/>
      <point x="141.0" y="370.0" type="qcurve" smooth="yes"/>
      <point x="141.0" y="1007.0" type="line" smooth="yes"/>
      <point x="141.0" y="1072.0"/>
      <point x="206.0" y="1072.0" type="qcurve" smooth="yes"/>
      <point x="926.0" y="1072.0" type="line" smooth="yes"/>
      <point x="991.0" y="1072.0"/>
      <point x="991.0" y="1007.0" type="qcurve" smooth="yes"/>
      <point x="991.0" y="889.0" type="line" smooth="yes"/>
      <point x="991.0" y="824.0"/>
      <point x="926.0" y="824.0" type="qcurve" smooth="yes"/>
      <point x="421.0" y="824.0" type="line"/>
      <point x="421.0" y="625.0" type="line" smooth="yes"/>
      <point x="421.0" y="585.0"/>
      <point x="417.0" y="545.0" type="qcurve"/>
      <point x="423.0" y="545.0" type="line"/>
      <point x="498.0" y="591.0"/>
      <point x="621.0" y="614.0"/>
      <point x="690.0" y="614.0" type="qcurve" smooth="yes"/>
      <point x="846.0" y="614.0"/>
      <point x="1092.0" y="396.0"/>
      <point x="1092.0" y="167.0" type="qcurve" smooth="yes"/>
      <point x="1092.0" y="-54.0"/>
      <point x="813.0" y="-294.0"/>
      <point x="568.0" y="-294.0" type="qcurve" smooth="yes"/>
      <point x="404.0" y="-294.0"/>
      <point x="178.0" y="-228.0"/>
    </contour>
  </outline>
</glyph>
<glyph name="acute.cap" format="2">
  <advance width="820"/>
  <unicode hex="F6C9"/>
  <outline>
    <contour>
      <point x="286.0" y="1540.0" type="line" smooth="yes"/>
      <point x="219.0" y="1540.0"/>
      <point x="261.0" y="1604.0" type="qcurve" smooth="yes"/>
      <point x="349.0" y="1738.0" type="line" smooth="yes"/>
      <point x="380.0" y="1785.0"/>
      <point x="458.0" y="1785.0" type="qcurve" smooth="yes"/>
      <point x="634.0" y="1785.0" type="line" smooth="yes"/>
      <point x="724.0" y="1785.0"/>
      <point x="658.0" y="1724.0" type="qcurve" smooth="yes"/>
      <point x="500.0" y="1578.0" type="line" smooth="yes"/>
      <point x="459.0" y="1540.0"/>
      <point x="389.0" y="1540.0" type="qcurve" smooth="yes"/>
    </contour>
  </outline>
</glyph>
<glyph name="macron.cap" format="2">
  <advance width="820"/>
  <unicode hex="F6D0"/>
  <outline>
    <contour>
      <point x="103.0" y="1534.0" type="line" smooth="yes"/>
      <point x="38.0" y="1534.0"/>
      <point x="38.0" y="1594.0" type="qcurve" smooth="yes"/>
      <point x="38.0" y="1664.0" type="line" smooth="yes"/>
      <point x="38.0" y="1724.0"/>
      <point x="103.0" y="1724.0" type="qcurve" smooth="yes"/>
      <point x="717.0" y="1724.0" type="line" smooth="yes"/>
      <point x="782.0" y="1724.0"/>
      <point x="782.0" y="1664.0" type="qcurve" smooth="yes"/>
      <point x="782.0" y="1594.0" type="line" smooth="yes"/>
      <point x="782.0" y="1534.0"/>
      <point x="717.0" y="1534.0" type="qcurve" smooth="yes"/>
    </contour>
  </outline>
</glyph>
<glyph name="cyrBreve" format="2">
  <advance width="1492"/>
  <unicode hex="F6D1"/>
  <outline>
    <contour>
      <point x="338.0" y="1809.0" type="line" smooth="yes"/>
      <point x="333.0" y="1877.0"/>
      <point x="401.0" y="1877.0" type="qcurve" smooth="yes"/>
      <point x="509.0" y="1877.0" type="line" smooth="yes"/>
      <point x="569.0" y="1877.0"/>
      <point x="573.0" y="1829.0" type="qcurve" smooth="yes"/>
      <point x="576.0" y="1796.0" type="line" smooth="yes"/>
      <point x="579.0" y="1762.0"/>
      <point x="657.0" y="1698.0"/>
      <point x="746.0" y="1698.0" type="qcurve" smooth="yes"/>
      <point x="835.0" y="1698.0"/>
      <point x="913.0" y="1762.0"/>
      <point x="916.0" y="1796.0" type="qcurve" smooth="yes"/>
      <point x="919.0" y="1829.0" type="line" smooth="yes"/>
      <point x="923.0" y="1877.0"/>
      <point x="983.0" y="1877.0" type="qcurve" smooth="yes"/>
      <point x="1091.0" y="1877.0" type="line" smooth="yes"/>
      <point x="1159.0" y="1877.0"/>
      <point x="1154.0" y="1809.0" type="qcurve" smooth="yes"/>
      <point x="1150.0" y="1756.0" type="line" smooth="yes"/>
      <point x="1141.0" y="1636.0"/>
      <point x="896.0" y="1540.0"/>
      <point x="746.0" y="1540.0" type="qcurve" smooth="yes"/>
      <point x="596.0" y="1540.0"/>
      <point x="351.0" y="1636.0"/>
      <point x="342.0" y="1756.0" type="qcurve" smooth="yes"/>
    </contour>
  </outline>
</glyph>
<glyph name="cyrbreve" format="2">
  <advance width="1212"/>
  <unicode hex="F6D4"/>
  <outline>
    <contour>
      <point x="223.0" y="1412.0" type="line" smooth="yes"/>
      <point x="217.0" y="1471.0"/>
      <point x="283.0" y="1471.0" type="qcurve" smooth="yes"/>
      <point x="390.0" y="1471.0" type="line" smooth="yes"/>
      <point x="438.0" y="1471.0"/>
      <point x="449.0" y="1417.0" type="qcurve" smooth="yes"/>
      <point x="454.0" y="1392.0" type="line" smooth="yes"/>
      <point x="467.0" y="1326.0"/>
      <point x="551.0" y="1290.0"/>
      <point x="606.0" y="1290.0" type="qcurve" smooth="yes"/>
      <point x="661.0" y="1290.0"/>
      <point x="745.0" y="1326.0"/>
      <point x="758.0" y="1392.0" type="qcurve" smooth="yes"/>
      <point x="763.0" y="1417.0" type="line" smooth="yes"/>
      <point x="774.0" y="1471.0"/>
      <point x="822.0" y="1471.0" type="qcurve" smooth="yes"/>
      <point x="929.0" y="1471.0" type="line" smooth="yes"/>
      <point x="995.0" y="1471.0"/>
      <point x="989.0" y="1412.0" type="qcurve" smooth="yes"/>
      <point x="983.0" y="1354.0" type="line" smooth="yes"/>
      <point x="971.0" y="1238.0"/>
      <point x="725.0" y="1130.0"/>
      <point x="606.0" y="1130.0" type="qcurve" smooth="yes"/>
      <point x="487.0" y="1130.0"/>
      <point x="241.0" y="1238.0"/>
      <point x="229.0" y="1354.0" type="qcurve" smooth="yes"/>
    </contour>
  </outline>
</glyph>
<glyph name="three.oldstyle" format="2">
  <advance width="1158"/>
  <unicode hex="F733"/>
  <outline>
    <contour>
      <point x="103.0" y="-146.0" type="qcurve" smooth="yes"/>
      <point x="54.0" y="-104.0"/>
      <point x="97.0" y="-52.0" type="qcurve" smooth="yes"/>
      <point x="154.0" y="17.0" type="line" smooth="yes"/>
      <point x="204.0" y="78.0"/>
      <point x="261.0" y="26.0" type="qcurve" smooth="yes"/>
      <point x="319.0" y="-27.0"/>
      <point x="456.0" y="-70.0"/>
      <point x="536.0" y="-70.0" type="qcurve" smooth="yes"/>
      <point x="650.0" y="-70.0"/>
      <point x="762.0" y="30.0"/>
      <point x="762.0" y="132.0" type="qcurve" smooth="yes"/>
      <point x="762.0" y="234.0"/>
      <point x="640.0" y="344.0"/>
      <point x="532.0" y="344.0" type="qcurve" smooth="yes"/>
      <point x="461.0" y="344.0" type="line" smooth="yes"/>
      <point x="401.0" y="344.0"/>
      <point x="401.0" y="397.0" type="qcurve" smooth="yes"/>
      <point x="401.0" y="507.0" type="line" smooth="yes"/>
      <point x="401.0" y="562.0"/>
      <point x="461.0" y="562.0" type="qcurve" smooth="yes"/>
      <point x="516.0" y="562.0" type="line" smooth="yes"/>
      <point x="608.0" y="562.0"/>
      <point x="723.0" y="653.0"/>
      <point x="723.0" y="742.0" type="qcurve" smooth="yes"/>
      <point x="723.0" y="806.0"/>
      <point x="614.0" y="872.0"/>
      <point x="537.0" y="872.0" type="qcurve" smooth="yes"/>
      <point x="455.0" y="872.0"/>
      <point x="325.0" y="822.0"/>
      <point x="263.0" y="773.0" type="qcurve" smooth="yes"/>
      <point x="209.0" y="730.0"/>
      <point x="172.0" y="790.0" type="qcurve" smooth="yes"/>
      <point x="122.0" y="870.0" type="line" smooth="yes"/>
      <point x="89.0" y="923.0"/>
      <point x="142.0" y="968.0" type="qcurve" smooth="yes"/>
      <point x="214.0" y="1029.0"/>
      <point x="439.0" y="1096.0"/>
      <point x="537.0" y="1096.0" type="qcurve" smooth="yes"/>
      <point x="751.0" y="1096.0"/>
      <point x="1015.0" y="911.0"/>
      <point x="1015.0" y="762.0" type="qcurve" smooth="yes"/>
      <point x="1015.0" y="644.0"/>
      <point x="855.0" y="494.0"/>
      <point x="753.0" y="464.0" type="qcurve"/>
      <point x="753.0" y="460.0" type="line"/>
      <point x="873.0" y="443.0"/>
      <point x="1062.0" y="264.0"/>
      <point x="1062.0" y="117.0" type="qcurve" smooth="yes"/>
      <point x="1062.0" y="-57.0"/>
      <point x="772.0" y="-294.0"/>
      <point x="524.0" y="-294.0" type="qcurve" smooth="yes"/>
      <point x="423.0" y="-294.0"/>
      <point x="202.0" y="-231.0"/>
    </contour>
  </outline>
</glyph>
<glyph name="fi" format="2">
  <advance width="1214"/>
  <unicode hex="FB01"/>
  <outline>
    <contour>
      <point x="101.0" y="850.0" type="line" smooth="yes"/>
      <point x="42.0" y="850.0"/>
      <point x="42.0" y="900.0" type="qcurve" smooth="yes"/>
      <point x="42.0" y="1000.0" type="line" smooth="yes"/>
      <point x="42.0" y="1050.0"/>
      <point x="101.0" y="1050.0" type="qcurve" smooth="yes"/>
      <point x="157.0" y="1050.0" type="line"/>
      <point x="157.0" y="1126.0" type="line" smooth="yes"/>
      <point x="157.0" y="1335.0"/>
      <point x="420.0" y="1496.0"/>
      <point x="637.0" y="1496.0" type="qcurve" smooth="yes"/>
      <point x="744.0" y="1496.0"/>
      <point x="904.0" y="1462.0"/>
      <point x="962.0" y="1428.0" type="qcurve" smooth="yes"/>
      <point x="994.0" y="1409.0"/>
      <point x="974.0" y="1373.0" type="qcurve" smooth="yes"/>
      <point x="912.0" y="1260.0" type="line" smooth="yes"/>
      <point x="897.0" y="1233.0"/>
      <point x="862.0" y="1253.0" type="qcurve" smooth="yes"/>
      <point x="834.0" y="1269.0"/>
      <point x="729.0" y="1300.0"/>
      <point x="646.0" y="1300.0" type="qcurve" smooth="yes"/>
      <point x="534.0" y="1300.0"/>
      <point x="437.0" y="1197.0"/>
      <point x="437.0" y="1086.0" type="qcurve" smooth="yes"/>
      <point x="437.0" y="1050.0" type="line"/>
      <point x="1018.0" y="1050.0" type="line" smooth="yes"/>
      <point x="1078.0" y="1050.0"/>
      <point x="1078.0" y="990.0" type="qcurve" smooth="yes"/>
      <point x="1078.0" y="60.0" type="line" smooth="yes"/>
      <point x="1078.0" y="0.0"/>
      <point x="1018.0" y="0.0" type="qcurve" smooth="yes"/>
      <point x="858.0" y="0.0" type="line" smooth="yes"/>
      <point x="798.0" y="0.0"/>
      <point x="798.0" y="60.0" type="qcurve" smooth="yes"/>
      <point x="798.0" y="850.0" type="line"/>
      <point x="437.0" y="850.0" type="line"/>
      <point x="437.0" y="60.0" type="line" smooth="yes"/>
      <point x="437.0" y="0.0"/>
      <point x="377.0" y="0.0" type="qcurve" smooth="yes"/>
      <point x="217.0" y="0.0" type="line" smooth="yes"/>
      <point x="157.0" y="0.0"/>
      <point x="157.0" y="60.0" type="qcurve" smooth="yes"/>
      <point x="157.0" y="850.0" type="line"/>
    </contour>
  </outline>
</glyph>
<glyph name="fl" format="2">
  <advance width="1214"/>
  <unicode hex="FB02"/>
  <outline>
    <contour>
      <point x="101.0" y="850.0" type="line" smooth="yes"/>
      <point x="42.0" y="850.0"/>
      <point x="42.0" y="900.0" type="qcurve" smooth="yes"/>
      <point x="42.0" y="1000.0" type="line" smooth="yes"/>
      <point x="42.0" y="1050.0"/>
      <point x="101.0" y="1050.0" type="qcurve" smooth="yes"/>
      <point x="157.0" y="1050.0" type="line"/>
      <point x="157.0" y="1126.0" type="line" smooth="yes"/>
      <point x="157.0" y="1314.0"/>
      <point x="381.0" y="1496.0"/>
      <point x="637.0" y="1496.0" type="qcurve" smooth="yes"/>
      <point x="801.0" y="1496.0"/>
      <point x="1006.0" y="1428.0"/>
      <point x="1078.0" y="1377.0" type="qcurve"/>
      <point x="1078.0" y="60.0" type="line" smooth="yes"/>
      <point x="1078.0" y="0.0"/>
      <point x="1018.0" y="0.0" type="qcurve" smooth="yes"/>
      <point x="858.0" y="0.0" type="line" smooth="yes"/>
      <point x="798.0" y="0.0"/>
      <point x="798.0" y="60.0" type="qcurve" smooth="yes"/>
      <point x="798.0" y="1256.0" type="line"/>
      <point x="772.0" y="1272.0"/>
      <point x="708.0" y="1300.0"/>
      <point x="646.0" y="1300.0" type="qcurve" smooth="yes"/>
      <point x="537.0" y="1300.0"/>
      <point x="437.0" y="1203.0"/>
      <point x="437.0" y="1086.0" type="qcurve" smooth="yes"/>
      <point x="437.0" y="1050.0" type="line"/>
      <point x="561.0" y="1050.0" type="line" smooth="yes"/>
      <point x="620.0" y="1050.0"/>
      <point x="620.0" y="1000.0" type="qcurve" smooth="yes"/>
      <point x="620.0" y="900.0" type="line" smooth="yes"/>
      <point x="620.0" y="850.0"/>
      <point x="561.0" y="850.0" type="qcurve" smooth="yes"/>
      <point x="437.0" y="850.0" type="line"/>
      <point x="437.0" y="60.0" type="line" smooth="yes"/>
      <point x="437.0" y="0.0"/>
      <point x="377.0" y="0.0" type="qcurve" smooth="yes"/>
      <point x="217.0" y="0.0" type="line" smooth="yes"/>
      <point x="157.0" y="0.0"/>
      <point x="157.0" y="60.0" type="qcurve" smooth="yes"/>
      <point x="157.0" y="850.0" type="line"/>
    </contour>
  </outline>
</glyph>
<glyph name="plus.tab" format="2">
  <advance width="1200"/>
  <outline>
    <contour>
      <point x="130.0" y="632.0" type="line" smooth="yes"/>
      <point x="70.0" y="632.0"/>
      <point x="70.0" y="682.0" type="qcurve" smooth="yes"/>
      <point x="70.0" y="768.0" type="line" smooth="yes"/>
      <point x="70.0" y="818.0"/>
      <point x="130.0" y="818.0" type="qcurve" smooth="yes"/>
      <point x="507.0" y="818.0" type="line"/>
      <point x="507.0" y="1195.0" type="line" smooth="yes"/>
      <point x="507.0" y="1255.0"/>
      <point x="557.0" y="1255.0" type="qcurve" smooth="yes"/>
      <point x="643.0" y="1255.0" type="line" smooth="yes"/>
      <point x="693.0" y="1255.0"/>
      <point x="693.0" y="1195.0" type="qcurve" smooth="yes"/>
      <point x="693.0" y="818.0" type="line"/>
      <point x="1070.0" y="818.0" type="line" smooth="yes"/>
      <point x="1130.0" y="818.0"/>
      <point x="1130.0" y="768.0" type="qcurve" smooth="yes"/>
      <point x="1130.0" y="682.0" type="line" smooth="yes"/>
      <point x="1130.0" y="632.0"/>
      <point x="1070.0" y="632.0" type="qcurve" smooth="yes"/>
      <point x="693.0" y="632.0" type="line"/>
      <point x="693.0" y="255.0" type="line" smooth="yes"/>
      <point x="693.0" y="195.0"/>
      <point x="643.0" y="195.0" type="qcurve" smooth="yes"/>
      <point x="557.0" y="195.0" type="line" smooth="yes"/>
      <point x="507.0" y="195.0"/>
      <point x="507.0" y="255.0" type="qcurve" smooth="yes"/>
      <point x="507.0" y="632.0" type="line"/>
    </contour>
  </outline>
</glyph>
<glyph name="seven.tab" format="2">
  <advance width="1200"/>
  <outline>
    <contour>
      <point x="161.0" y="1174.0" type="line" smooth="yes"/>
      <point x="96.0" y="1174.0"/>
      <point x="96.0" y="1239.0" type="qcurve" smooth="yes"/>
      <point x="96.0" y="1357.0" type="line" smooth="yes"/>
      <point x="96.0" y="1422.0"/>
      <point x="161.0" y="1422.0" type="qcurve" smooth="yes"/>
      <point x="1039.0" y="1422.0" type="line" smooth="yes"/>
      <point x="1104.0" y="1422.0"/>
      <point x="1104.0" y="1357.0" type="qcurve" smooth="yes"/>
      <point x="1104.0" y="1244.0" type="line" smooth="yes"/>
      <point x="1104.0" y="1188.0"/>
      <point x="1054.0" y="1137.0" type="qcurve" smooth="yes"/>
      <point x="835.0" y="909.0"/>
      <point x="672.0" y="380.0"/>
      <point x="672.0" y="121.0" type="qcurve" smooth="yes"/>
      <point x="672.0" y="59.0" type="line" smooth="yes"/>
      <point x="672.0" y="-6.0"/>
      <point x="607.0" y="-6.0" type="qcurve" smooth="yes"/>
      <point x="457.0" y="-6.0" type="line" smooth="yes"/>
      <point x="392.0" y="-6.0"/>
      <point x="392.0" y="59.0" type="qcurve" smooth="yes"/>
      <point x="392.0" y="86.0" type="line" smooth="yes"/>
      <point x="392.0" y="424.0"/>
      <point x="608.0" y="944.0"/>
      <point x="842.0" y="1174.0" type="qcurve"/>
      <point x="842.0" y="1178.0" type="line"/>
      <point x="802.0" y="1174.0"/>
      <point x="762.0" y="1174.0" type="qcurve" smooth="yes"/>
    </contour>
  </outline>
</glyph>
